<svg xmlns="http://www.w3.org/2000/svg" height="2048" preserveAspectRatio="none" style="display: block;" version="1.1" viewBox="0 0 2048 2048" width="2048">
<path d="M 0 0 L 2048 0 L 2048 2048 L 0 2048 L 0 0 z" fill="rgb(255,255,255)" transform="translate(0,0)"></path>
<path d="M 1062.81 455.241 C 1071.41 455.248 1073.02 456.457 1080.6 460.27 C 1087.58 459.59 1106.23 457.359 1111.5 460.688 C 1123.83 468.484 1125.85 465.142 1138.85 465.117 C 1140.88 465.113 1156.28 473.291 1160.48 474.857 C 1164.41 477.139 1181.85 480.489 1184.32 483.081 C 1194.89 494.198 1201.24 501.802 1216.22 507.845 C 1222.1 510.218 1226.66 524.784 1230.35 529.696 C 1234.64 535.411 1241.17 539.725 1244.49 546.062 C 1248.01 552.78 1246.19 562.225 1248.23 568.586 C 1250.5 575.659 1256.32 582.063 1257.46 590.274 C 1259.22 598.031 1252.8 607.802 1252.63 614.664 C 1252.17 634.084 1253.82 635.707 1242.38 651.513 C 1241.32 674.715 1239.67 666.537 1227.23 682.335 C 1218.81 693.028 1212.47 701.553 1201.36 710.476 C 1197.84 713.299 1193.31 720.704 1189.39 723.535 C 1185.03 726.812 1176.19 727.063 1171.35 729.793 C 1164.8 734.124 1161.02 738.316 1153.79 741.902 C 1151.7 741.762 1149.6 741.639 1147.51 741.531 C 1142.15 741.212 1134.68 740.687 1133.49 747.059 C 1134.78 750.573 1137.06 751.785 1140.05 754.137 C 1151.92 755.389 1152.27 755.634 1162 762.628 C 1165.53 762.692 1173.52 762.716 1176.41 764.084 C 1183.28 767.336 1188.2 773.936 1195.7 777.395 C 1202.23 780.404 1211.09 780.422 1216.89 784.028 C 1219.64 785.745 1225.52 793.65 1228.74 795.099 C 1233.55 797.263 1239 797.495 1243.47 800.747 C 1248.97 804.751 1251.47 813.622 1256.51 817.498 C 1260.07 820.233 1266.99 822.342 1270.11 825.916 C 1274.69 831.17 1276.03 841.398 1279.67 847.337 C 1281.04 849.567 1287.54 854.506 1289.72 856.743 C 1296.17 863.362 1292.33 871.428 1294.56 880.409 C 1296.2 887.033 1305.2 900.357 1305.24 905.466 C 1305.35 917.834 1301.93 932.795 1302.87 945.496 C 1303.83 958.399 1298.88 959.131 1296.09 971.06 C 1294.27 978.86 1295.51 988.495 1292.02 995.639 C 1290.32 999.122 1285.47 1003.71 1282.62 1006.56 C 1279.88 1019.33 1282.05 1018.6 1273.95 1029.41 C 1260.6 1047.22 1265.83 1049.46 1244.96 1059.61 C 1245.36 1047.99 1244.44 1045.87 1241.31 1034.81 C 1247.05 1020.31 1249.3 1017.67 1242.29 1003.45 C 1247.06 985.343 1243.51 983.149 1243.69 966.021 C 1243.89 945.708 1247.81 942.524 1241.44 921.84 C 1244.5 911.715 1250.57 878.753 1233.82 877.889 C 1222.9 881.551 1225.38 910.762 1218.34 918.901 L 1216.11 918.832 C 1205 909.754 1214.99 899.237 1188.2 889.834 C 1185.56 884.193 1183.35 880.187 1180.24 874.785 C 1176.24 873.456 1169.38 872.146 1165.08 871.187 C 1161.51 867.151 1157.84 863.383 1154.11 859.506 C 1155.06 848.227 1150.08 844.241 1148.41 833.316 C 1147.95 830.283 1148.74 821.791 1149.01 818.359 C 1146.59 814.393 1142.01 809.755 1140.26 806.835 C 1131.2 789 1126.02 786.654 1110.51 776.4 C 1095.57 766.522 1085.48 767.872 1071.64 758.438 C 1065.8 759.118 1060.7 759.471 1054.85 759.824 C 1051.74 758.032 1048.17 755.627 1045.09 753.669 C 1043.5 753.964 1041.9 754.234 1040.3 754.479 C 1032.19 755.712 994.578 757.638 988.574 753.235 L 989.406 751.787 C 996.707 749.192 1000.66 751.435 1008.16 753.751 C 1013.11 751.927 1017.59 750.44 1022.6 748.851 L 1023.5 749.205 C 1029.72 751.559 1031.38 752.788 1038.12 750.641 C 1049.31 747.076 1053.02 746.507 1064.46 748.648 C 1066.05 747.837 1070.8 745.446 1071.78 744.42 C 1076.24 739.733 1094.8 733.905 1098.49 730.495 C 1109.93 719.923 1110.09 715.746 1123.95 706.569 C 1124.48 704.911 1125.62 702.026 1125.9 700.477 C 1128.53 685.603 1140.19 682.454 1136.86 666.385 C 1136.55 653.965 1140.31 652.429 1142.22 640.771 C 1142.84 637.035 1139.98 627.462 1139.58 622.948 C 1139.13 617.764 1142.83 608.484 1142.52 604.119 C 1142.12 598.426 1139.07 589.479 1138.05 583.311 C 1136.8 575.774 1136.27 566.182 1134.6 558.994 C 1134.16 557.104 1125.73 548.661 1124.18 546.022 C 1121.87 542.104 1121.48 531.623 1119.39 528.303 C 1111.34 515.501 1110.22 521.302 1106.11 505.776 C 1092.69 497.509 1090.52 497.185 1082.14 484.136 C 1067.15 479.4 1062.87 475.885 1049.77 466.964 C 1037.84 468.032 1030.1 461.994 1018.8 462.195 C 1000.54 462.521 997.221 467.597 977.259 466.554 C 966.504 477.369 952.231 484.613 944.14 495.362 C 930.156 513.904 928.706 525.748 925.365 547.358 C 921.554 572 925.8 590.092 922.092 614.28 C 921.593 617.54 925.554 628.766 925.099 633.997 C 923.133 656.614 922.212 680.154 923.523 702.792 C 929.481 714.277 920.377 730.674 922.012 737.909 C 926.139 756.164 921.101 774.551 923.514 792.862 C 924.42 799.732 922.711 805.662 923.208 811.27 C 924.625 827.278 924.8 836.101 921.637 851.643 C 916.578 855.699 915.793 856.208 911.744 861.6 L 907.965 862.824 C 897.346 866.261 893.812 871.217 884.949 877.635 C 880.596 881.186 871.43 884.881 867.796 888.934 C 857.53 900.382 844.697 908.847 833.985 919.403 C 828.69 924.62 826.277 940.904 818.625 944.345 L 816.982 943.482 C 814.677 937.139 816.437 931.957 817.243 925.727 C 819.946 904.838 815.311 902.008 822.943 880.693 C 818.68 863.159 817.873 860.848 823.403 843.787 C 818.765 825.217 821.632 822.03 821.568 804.46 C 821.502 786.214 819.058 784.133 823.946 764.833 C 817.23 745.917 822.573 738.363 822.72 719.734 C 822.75 716.018 819.601 707.556 819.962 702.799 C 819.556 699.61 824.147 684.752 823.504 682.365 C 819.412 667.182 819.584 659.105 823.238 643.732 C 823.707 641.756 822.248 630.15 821.769 627.37 C 819.865 616.305 822.038 608.756 824.465 597.99 C 815.2 572.185 825.288 557.071 815.824 532.186 C 814.216 527.958 813.563 519.203 813.04 514.317 C 808.471 509.251 802.718 505.359 798.358 500.332 C 795.486 497.022 794.955 488.469 791.336 485.684 C 779.251 476.387 777.812 481.915 767.359 469.192 C 755.099 468.573 753.172 468.779 743.892 461.443 L 737.203 462.416 C 733.103 462.99 727.786 463.945 724.36 461.375 L 724.33 459.407 C 729.673 455.473 743.468 459.564 749.978 458.765 C 752.807 458.418 756.498 457.209 759.242 456.343 C 763.3 458.4 766.674 459.724 770.867 461.404 C 792.876 454.951 786.485 458.89 808.374 460.758 C 811.829 461.053 823.293 456.657 828.324 456.869 C 834.847 457.144 840.532 459.094 846.962 459.76 C 852.748 460.36 857.983 457.438 863.807 457.34 C 871.645 457.209 880.69 460.158 888.104 460.554 C 892.769 460.803 904.39 456.752 909.521 455.131 C 912.774 456.394 924.692 461.193 927.005 460.702 C 945.417 456.799 954.858 455.377 973.471 460.688 C 976.634 461.59 989.038 458.15 993.655 458.154 C 1013.36 458.174 1044.25 460.863 1062.81 455.241 z" fill="rgb(36,31,27)" transform="translate(0,0)"></path>
<path d="M 1044.91 1119.79 C 1060.44 1125.8 1067.76 1132.28 1081.04 1138.78 C 1093.14 1144.71 1113.43 1145.96 1126.18 1153.82 C 1135 1159.26 1138.75 1165.05 1146.94 1170.76 C 1150.37 1172.72 1159.73 1173.34 1163.78 1174.81 C 1171.1 1176.26 1176.86 1190.25 1181.14 1192.58 C 1194.28 1199.73 1199.42 1198.56 1208.3 1212.7 C 1210.16 1215.65 1224.02 1220.47 1226.82 1224.41 C 1229.64 1228.39 1231.35 1232.37 1233.3 1236.43 C 1236.33 1237.77 1241.17 1239.8 1243.53 1241.91 C 1249.16 1246.94 1251.04 1257.34 1255.38 1263.91 C 1259.69 1270.42 1266.11 1273.94 1270.3 1280.29 C 1273.57 1285.25 1273.12 1294.97 1275.26 1300.16 C 1277.64 1305.91 1284.96 1313.3 1286.08 1319.64 C 1287.54 1323.84 1284.85 1338.9 1286.04 1341.92 C 1291.67 1356.22 1290.77 1363.9 1288.69 1378.7 C 1287.73 1385.56 1288.84 1395.57 1287.56 1402.54 C 1286.61 1407.67 1281.62 1414.92 1280.62 1420.4 C 1277.73 1439.06 1282.91 1439.52 1270.15 1453.34 C 1267.31 1471.35 1263.43 1473.14 1251.22 1486.44 C 1246.89 1491.17 1243.97 1497.69 1238.62 1502.65 C 1234.5 1506.48 1225.88 1512.79 1223.51 1517.24 C 1224.16 1520.45 1227.49 1523.62 1229.78 1526.61 C 1230.25 1527.31 1230.55 1527.47 1231.27 1528.09 C 1236.4 1536.57 1250.22 1569.08 1248.67 1577.44 C 1237.77 1577.95 1225.15 1553.78 1224.25 1544.02 C 1223.67 1537.77 1224.86 1528.41 1222.8 1522.72 L 1221.14 1522.79 C 1205.82 1536.11 1206.45 1526.94 1193.96 1545.74 C 1186.94 1548.76 1177.46 1552.61 1170.89 1556.29 C 1168.26 1557.77 1161.59 1564.18 1158.26 1566.53 C 1149.78 1572.48 1141.67 1568.88 1133.4 1571.82 C 1127.86 1573.79 1119.83 1579.77 1113.57 1580.48 C 1108.6 1581.05 1101.59 1579.56 1096.77 1580.8 C 1092.32 1581.94 1082.54 1587.11 1078.47 1587.4 C 1071.77 1588.29 1063.51 1586.15 1057.01 1586.56 C 1038.48 1587.72 1022.32 1587.53 1003.92 1584.36 C 998.042 1583.34 989.005 1584.88 983.003 1583.71 C 978.524 1582.84 974.024 1579.85 969.485 1579 C 965.471 1578.15 953.1 1580.5 950.149 1579.02 C 936.951 1572.41 931.819 1567 915.944 1566.89 C 912.742 1566.87 902.542 1559.33 898.68 1558.41 C 893.009 1557.06 887.783 1558.06 882.165 1556.87 C 877.926 1555.9 869.19 1550.1 866.571 1549.8 C 855.616 1548.53 847.198 1548.29 835.928 1546.4 C 793.497 1568.47 812.003 1587.42 803.779 1596.21 C 800.605 1596.02 801.979 1596.59 799.582 1594.32 C 796.369 1585.74 799.16 1576.36 802.069 1568.21 C 799.703 1557.12 795.452 1545.22 797.158 1533.66 C 798.027 1527.77 802.699 1518.91 801.409 1513.01 C 800.071 1506.9 797.559 1500.85 795.871 1494.32 C 797.103 1488.72 800.507 1482.51 801.114 1477.62 C 802.169 1469.13 796.396 1458.68 797.024 1449.71 C 797.507 1442.82 801.507 1433.67 801.044 1426.92 C 800.626 1420.83 796.965 1412.46 797.051 1406.07 C 797.149 1398.89 800.994 1391.45 801.297 1384.13 C 801.552 1377.97 797.166 1369.27 797.038 1363.42 C 796.848 1354.72 798.718 1345.04 799.205 1336.23 C 799.645 1328.27 798.488 1321.89 797.824 1314.06 C 797.551 1310.85 798.248 1307.53 800.5 1305.11 C 803.076 1305.77 805.172 1309.61 804.864 1311.2 C 801.748 1327.27 803.311 1334.87 809.062 1349.89 C 810.182 1352.82 810.027 1361.77 811.39 1363.88 C 818.918 1375.59 818.752 1381.66 819.009 1394.99 C 819.094 1399.04 828.458 1406.66 830.209 1410.8 C 831.863 1413.45 832.982 1426 834.344 1427.58 C 844.644 1439.57 848.945 1443.35 851.374 1459.38 C 851.866 1462.62 861.381 1469.42 863.466 1472.65 C 866.388 1477.18 866.214 1482.5 869.189 1486.95 C 872.582 1491.95 880.614 1493.55 884.581 1497.86 C 889.496 1503.21 891.583 1509.62 895.995 1516.08 L 896.692 1517.09 C 912.981 1524.53 914.314 1524.96 924.237 1539.77 C 944.886 1544.91 937.867 1544.23 953.495 1557.06 C 956.457 1559.49 968.616 1561.44 972.644 1563.61 C 977.688 1566.32 981.606 1571.58 987.049 1573.46 C 989.349 1574.26 995.411 1575.48 997.997 1575.57 C 1008.3 1575.92 1017.92 1581.56 1027.68 1582.53 C 1036.76 1583.42 1048.37 1580.95 1057.6 1580.45 C 1064 1580.09 1070.63 1580.06 1077.05 1579.9 C 1090.22 1569.88 1091.95 1572.53 1107.2 1569.09 C 1120.67 1553.07 1125.03 1561.12 1139.83 1551.58 C 1145.22 1548.11 1155.62 1530.58 1166.75 1527.36 C 1171.86 1525.3 1178.92 1506.54 1181.11 1504.83 C 1200.69 1489.47 1194.99 1491.25 1199.87 1471.7 C 1203.8 1455.96 1214.36 1454.7 1205.6 1432.8 C 1204.55 1430.16 1208.62 1413.86 1205.71 1409.27 C 1197.25 1397.07 1195.29 1389.29 1192.33 1375.08 C 1181.04 1364.84 1167.32 1345.58 1155.4 1337.06 C 1135.52 1322.87 1125.67 1309.35 1101.73 1303.42 C 1098.43 1302.6 1089.74 1285.66 1074.37 1286.2 C 1071.99 1286.28 1049.5 1274.53 1046.08 1272.75 C 1042.37 1270.07 1044.22 1222.71 1044.26 1217.72 L 1044.91 1119.79 z" fill="rgb(36,31,27)" transform="translate(0,0)"></path>
<path d="M 1020.59 761.357 C 1023.53 761.573 1023.81 761.665 1026.67 762.491 C 1031.53 767.758 1026.26 828.934 1032.03 838.458 C 1032.84 839.8 1057.41 838.164 1061.38 839.426 C 1064.67 840.474 1067.84 842.283 1071.1 844.202 C 1094.67 841.309 1088.95 843.742 1109.67 851.178 C 1123.59 856.176 1124.73 845.109 1138.45 862.197 C 1139.47 862.383 1145.9 863.409 1146.48 863.77 C 1156.74 870.194 1167.15 876.073 1177.68 882.022 C 1178.78 882.642 1183.83 892.743 1184.84 894.535 C 1188.56 896.669 1195.85 899.707 1198.51 902.608 C 1211.02 916.29 1204.56 919.492 1222.55 924.661 C 1209.48 948.307 1180.56 953.388 1156.16 957.345 C 1154.67 947.298 1151.48 945.479 1147.75 936.308 C 1145.14 929.874 1145.35 925.369 1144.89 918.419 C 1131.38 905.87 1129.39 904.947 1127.5 887.174 C 1115.43 880.698 1110.18 878.134 1102.6 866.582 C 1093.06 863.568 1085.55 861.412 1077.37 855.652 C 1068.52 849.425 1041.24 837.675 1031.73 845.82 C 1029.51 852.098 1034.25 893.851 1034.85 903.642 C 1035.59 915.868 1036.45 956.115 1049.26 961.256 C 1074.67 971.449 1109.54 970.419 1136.97 967.152 C 1161.21 964.266 1220.16 955.739 1227.61 927.026 C 1230.41 913.711 1225.88 915.058 1235.12 899.974 C 1233.31 894.988 1230.04 888.472 1235.42 884.875 C 1241.18 887.581 1239.77 899.308 1239.17 905.047 C 1237.69 919.365 1239.95 932.244 1240.92 946.4 C 1241.31 952.058 1237.91 963.438 1238.5 968.784 C 1240.16 983.877 1242.11 987.325 1238.39 1001.94 C 1197.46 994.125 1156.07 988.976 1114.47 986.529 C 1099.96 985.671 1086.5 985.742 1072.3 986.348 C 1038.12 987.807 1036.89 997.842 1037.38 1029.16 C 1037.52 1038.46 1037.24 1052.31 1037.07 1062.03 L 1034.97 1174 C 1033.61 1285.27 1031.63 1396.54 1029.04 1507.79 C 1028.79 1527.85 1029.11 1553.59 1027.36 1573.89 C 1027.24 1575.28 1026.69 1575.19 1025.28 1576.04 L 1023.42 1575.5 C 1020.74 1571.26 1021.5 1551.72 1021.42 1545.61 C 1021.13 1522.12 1020.72 1498.63 1020.19 1475.13 L 1013.84 1077.18 C 1013.46 1051.26 1012.97 1025.96 1014.4 1000.04 C 1014.88 991.282 980.548 990.688 973.403 990.113 C 936.936 987.143 900.393 985.198 863.817 984.282 C 853.722 983.979 796.499 983.756 791.9 980.497 C 790.489 976.918 790.742 978.787 791.626 974.655 C 792.272 974.174 792.918 973.693 793.564 973.213 C 804.298 972.703 831.257 972.633 840.772 972.486 C 877.727 971.896 914.677 971.043 951.62 969.927 C 961.667 969.658 1006.36 970.384 1008.2 963.215 C 1013.48 942.707 1022 861.131 1017.42 845.266 C 1013.88 843.168 989.438 847.251 982.819 847.934 C 965.617 861.692 960.81 854.917 944.652 865.271 C 938.599 869.15 931.466 883.121 923.819 890.407 L 922.726 891.437 C 919.121 907.744 919.034 907.7 908.297 921.54 L 910.502 935.316 C 905.728 949.055 902.94 946.963 901.496 963.922 C 871.969 964.667 842.449 965.657 812.938 966.891 L 813.298 965.746 C 817.688 952.084 821.369 954.76 826.723 945.714 C 838.73 925.429 835.12 922.059 857.688 910.554 C 869.432 889.595 868.223 894.9 888.572 882.562 C 891.416 880.838 897.642 873.093 901.722 871.122 C 907.087 868.53 912.687 868.224 917.991 865.331 C 920.008 864.231 924.798 856.21 926.193 855.714 C 937.29 851.775 954.026 847.951 965.289 844.282 C 968.021 843.392 984.47 843.583 988.555 843.186 C 999.701 842.102 1008.63 838.353 1019.12 839.033 C 1020 814.672 1018.97 784.157 1020.59 761.357 z" fill="rgb(36,31,27)" transform="translate(0,0)"></path>
<path d="M 809.087 990.395 C 838.585 991.082 868.07 992.257 897.529 993.919 C 898.577 998.763 905.492 1012.14 905.474 1013.43 C 905.202 1033.55 908.55 1028.63 921.282 1040.03 C 924.448 1042.87 922.314 1053.86 932.499 1058.61 C 941.14 1062.63 945.644 1070.15 949.563 1077.94 C 956.679 1081.76 963.734 1082.63 972.002 1086.81 C 981.48 1102.08 984.433 1096.36 1003.6 1101.67 L 1006.53 1256.29 C 1002.3 1255.62 998.203 1254.67 994.019 1253.75 C 987.774 1251.52 983.243 1245.85 978.6 1241.04 C 973.664 1239.67 965.079 1238.25 960.769 1236.56 C 954.47 1234.09 947.828 1226.71 941.207 1223.32 C 936.814 1220.47 930.362 1219.26 925.955 1216.78 C 915.632 1210.97 905.673 1205.98 894.705 1201.6 C 890.565 1199.95 886.878 1191.18 883.422 1188.15 C 877.62 1183.08 869.553 1180.73 864.013 1175.42 C 860.694 1172.11 859.092 1165.74 857.75 1161.17 C 855.958 1159.92 844.572 1152.06 843.792 1150.95 C 836.401 1140.4 829.041 1127.88 820.953 1117.47 C 817.803 1112.47 815.519 1099.89 812.686 1095.46 C 802.136 1078.97 802.434 1074.98 802.503 1055.78 C 787.491 1033.32 803.026 1011.96 809.087 990.395 z" fill="rgb(36,31,27)" transform="translate(0,0)"></path>
<path d="M 1148.46 996.239 C 1157.11 996.534 1167.87 997.817 1176.63 998.623 C 1183.63 1017.41 1181.7 1019.72 1198.28 1032.87 C 1199.42 1038.73 1200.33 1042.48 1201.98 1048.22 C 1205.54 1052.01 1208.96 1054.32 1213.1 1057.42 L 1218.44 1070.08 C 1207.72 1075.63 1203.7 1075.01 1191.99 1078.15 C 1190.65 1078.51 1181.22 1082.7 1179.03 1083.6 C 1163.83 1079.71 1160.3 1084.59 1146.04 1086.22 C 1133.53 1087.65 1125.13 1087.28 1112.53 1090.77 C 1106.69 1089.95 1105.25 1088.88 1100.19 1086.01 C 1084.08 1088.83 1081.96 1090.39 1067.48 1083.99 C 1059.43 1086.89 1057.84 1088.57 1049.08 1087.73 L 1048.77 1086.59 C 1056.32 1078.51 1074.5 1076.49 1084.89 1076.83 C 1088.42 1074.58 1093.75 1069.28 1097.39 1066.21 C 1104.57 1060.17 1107.83 1059.24 1115.82 1054.85 C 1117.63 1051.3 1120.66 1044.68 1122.96 1041.95 C 1125.6 1038.22 1138.41 1030.36 1139.32 1026.75 C 1141.05 1019.85 1147.36 1002.38 1148.46 996.239 z" fill="rgb(36,31,27)" transform="translate(0,0)"></path>
<path d="M 1181.26 999.895 C 1193.69 999.887 1208.39 1003.77 1220.84 1005.02 C 1247.31 1007.68 1246.39 1012.42 1236.35 1034.78 C 1244.58 1061.22 1235.69 1097.2 1242.69 1125.3 C 1242.22 1129.32 1242.32 1131.39 1238.39 1133.47 L 1236.91 1132.61 C 1228.16 1113.08 1247.15 1100.34 1222.25 1079.21 C 1222.47 1071.1 1221.65 1065.75 1220.48 1057.85 C 1206.32 1048.85 1204.61 1046.72 1202.42 1030.05 C 1185.61 1017.59 1189.75 1017.92 1181.26 999.895 z" fill="rgb(36,31,27)" transform="translate(0,0)"></path>
<path d="M 1249.44 1534.81 C 1255.95 1536.82 1266.11 1538.84 1273 1540.24 L 1277.49 1541.19 C 1291.08 1544.18 1298.79 1550.41 1310.22 1557.7 C 1325.4 1567.38 1334.03 1578.99 1343.3 1594.2 C 1343.95 1595.3 1344.61 1596.4 1345.25 1597.51 C 1312.41 1593.61 1286.44 1585.82 1264.54 1558.78 C 1259.46 1552.51 1252.99 1543.77 1247.68 1538.03 L 1249.44 1534.81 z" fill="rgb(36,31,27)" transform="translate(0,0)"></path>
<path d="M 789.129 1020.57 C 793.909 1024.86 785.629 1047.02 793.147 1052.34 C 799.437 1056.79 794.922 1062.81 796.176 1070.5 C 797.189 1076.7 798.129 1081.2 799.715 1087.24 C 796.351 1086.34 785.894 1082.9 783.505 1083.03 C 763.452 1084.14 762.931 1087.03 743.455 1080.87 C 734.925 1083.59 730.677 1086.45 721.99 1084.2 L 718.214 1083.2 C 714.326 1082.8 702.855 1086.51 702.522 1081.54 C 702.454 1080.47 702.855 1079.42 703.62 1078.67 C 709.729 1072.59 722.151 1083.32 727.956 1076.48 C 730.034 1073.74 732.12 1072.51 735.502 1072.27 C 742.41 1071.76 746.528 1067.39 753.992 1065.16 L 758.512 1063.88 C 763.22 1058.25 770.566 1051.34 774.825 1046.42 C 778.026 1042.72 780.779 1037.05 784.438 1033.43 C 785.634 1032.24 787.541 1023.8 789.129 1020.57 z" fill="rgb(36,31,27)" transform="translate(0,0)"></path>
<path d="M 1297.96 1487.4 C 1301.57 1487.23 1305.11 1487.69 1308.72 1488 C 1291.64 1509.9 1276.47 1521.33 1247.25 1520.95 C 1242.63 1520.91 1238.46 1521.06 1233.91 1521.09 C 1260.24 1502.38 1261.45 1490.29 1297.96 1487.4 z" fill="rgb(36,31,27)" transform="translate(0,0)"></path>
<path d="M 1229.78 1526.61 C 1233.79 1526.38 1243.79 1532.65 1249.44 1534.81 L 1247.68 1538.03 C 1242.5 1534.77 1236.65 1530.96 1231.27 1528.09 C 1230.55 1527.47 1230.25 1527.31 1229.78 1526.61 z" fill="rgb(84,81,78)" transform="translate(0,0)"></path>
<metadata><recraft-signature>{"signed_by": "recraft", "signature_b64": "/SXocNWLZY5JXsBOvURIK2HVCZho78zDCfnSIWy+oWLmrgpChED50i0i9QNgR6oijaiPWmr2w21zIv0kSDJHCQ==", "signing_algo": "Ed25519", "generation_timestamp": 1777148106, "identifier": "5207ddb1-899c-4bcc-af15-a11125626612"}</recraft-signature></metadata></svg>