<svg xmlns="http://www.w3.org/2000/svg" height="2048" preserveAspectRatio="none" style="display: block;" version="1.1" viewBox="0 0 2048 2048" width="2048">
<path d="M 566.718 1074.01 L 668.815 1073.92 C 723.574 1073.86 830.421 1064.83 820.654 1149.33 C 815.167 1196.8 766.067 1202.21 729.001 1206.69 C 736.031 1207.42 743.045 1208.3 750.04 1209.31 C 806.867 1217.83 844.717 1244.17 834.827 1306.53 C 822.097 1373.76 729.756 1366.12 678.322 1366.25 L 566.444 1366.25 C 566.355 1347.27 577.426 1360.08 587.728 1345.6 C 591.731 1339.97 594.047 1328.75 594.436 1321.7 C 596.322 1287.55 595.698 1252.05 595.81 1217.83 L 595.854 1154.49 C 595.824 1139.94 596.457 1121.94 593.756 1107.8 C 590.029 1088.29 579.264 1090.66 567.536 1083 C 565.575 1079.29 566.417 1078.99 566.718 1074.01 z" fill="rgb(184,153,115)" transform="translate(0,0)"></path>
<path d="M 689.544 1217.36 C 727.247 1215.49 752.153 1255.41 751.561 1289.45 C 751.182 1311.18 746.206 1324.71 730.965 1340.24 C 720.614 1347.94 692.447 1358.48 681.401 1345.6 C 677.866 1341.47 678.493 1315.69 678.684 1308.93 C 679.473 1281.12 678.295 1252.35 681.116 1224.66 C 681.468 1221.21 686.914 1218.64 689.544 1217.36 z" fill="rgb(254,253,254)" transform="translate(0,0)"></path>
<path d="M 691.425 1088.35 C 733.34 1085.25 738.84 1121.06 737.411 1154.5 C 736.733 1170.34 731.283 1182.81 719.078 1193.33 C 718.756 1193.54 718.443 1193.77 718.113 1193.97 C 710.392 1198.75 699.482 1202.61 690.333 1200.38 C 687.292 1199.64 683.431 1197.53 682.085 1194.55 C 677.911 1185.31 677.115 1099.54 681.285 1093.09 C 683.627 1089.47 687.551 1089.09 691.425 1088.35 z" fill="rgb(254,253,254)" transform="translate(0,0)"></path>
<path d="M 653.223 1102.32 C 653.81 1102.74 663.988 1111.87 664.064 1111.99 C 661.304 1114.55 660.301 1114.57 661.594 1119.81 C 662.027 1121.57 668.302 1120.34 666.034 1123.03 C 664.71 1124.61 663.788 1123.93 664.857 1126.57 C 665.103 1128.99 675.165 1123.92 672.476 1129.65 C 671.15 1130.37 669.627 1130.65 668.13 1130.45 C 664.078 1129.67 667.605 1134.12 667.367 1136.31 C 667.316 1136.78 670.705 1138.49 671.071 1138.71 C 665.905 1142.96 667.632 1140.64 665.958 1137.97 C 664.202 1135.16 659.348 1137.19 658.47 1136.53 C 657.029 1132.14 660.491 1125.17 660.611 1121.25 C 660.668 1119.4 656.012 1117.14 655.498 1115.98 C 655.979 1113.6 658.486 1112.59 656.78 1109.71 C 655.042 1106.78 652.408 1111.83 650.685 1106.99 C 650.529 1106.55 652.844 1102.95 653.223 1102.32 z" fill="rgb(229,218,201)" transform="translate(0,0)"></path>
<path d="M 793.391 1256.76 C 794.183 1257.02 795.107 1257.14 795.255 1258.09 C 794.903 1258.91 793.835 1259.19 793.097 1259.51 L 793.203 1259.76 C 793.901 1260.06 794.777 1259.84 795.397 1260.3 C 797.087 1265.18 793.245 1258.81 796.853 1265.52 C 796.654 1266.14 795.895 1265.96 795.413 1266.28 C 795.365 1266.61 795.318 1271.34 795.295 1271.54 C 794.414 1274.85 799.929 1274.47 798.594 1277.42 C 796.744 1281.51 804.563 1282.75 805.506 1286.55 C 805.667 1287.2 805.121 1292.47 803.334 1289.95 C 803.095 1287.61 803.453 1285.66 801.003 1284.75 C 795.706 1282.78 794.088 1277.7 791.419 1273.51 C 790.264 1273.46 787.567 1273.89 786.967 1272.43 C 785.505 1268.86 783.364 1270.87 781.055 1269.85 C 779.401 1267.34 785.102 1268.45 785.484 1265.77 C 784.34 1263.04 786.014 1262.34 788.653 1262.31 C 790.047 1259.87 791.559 1258.88 793.391 1256.76 z" fill="rgb(210,192,166)" transform="translate(0,0)"></path>
<path d="M 808.9 1245.32 C 808.675 1246.07 808.449 1246.82 808.224 1247.57 L 807.73 1248.74 C 807.286 1249.81 806.943 1251.62 805.588 1251.9 C 805.357 1251.78 805.126 1251.67 804.894 1251.55 C 802.587 1248.98 802.559 1251.33 800.542 1251.88 C 799.778 1252.08 798.589 1249.45 797.508 1249.73 C 795.562 1250.23 793.998 1249.82 792.41 1248.58 C 791.67 1247.99 791.244 1247.29 791.091 1246.34 C 800.888 1239.43 792.337 1241.11 788.285 1238.45 C 785.128 1236.38 797.272 1234.59 796.133 1234.14 C 796.297 1234.77 794.927 1239.15 795.369 1239.85 C 797.012 1239.81 797.017 1238.63 797.617 1238.61 C 805.376 1238.31 798.048 1244 809.16 1244 L 808.9 1245.32 z" fill="rgb(210,192,166)" transform="translate(0,0)"></path>
<path d="M 638.125 1124.06 C 644.502 1131.06 641.546 1127.04 644.512 1123.86 C 646.502 1123.82 647.658 1127.21 648.198 1128.92 C 648.065 1129.52 647.795 1129.65 647.304 1130.26 C 646.799 1130.75 646.302 1131.26 645.813 1131.77 C 643.947 1133.75 640.704 1135.15 638.032 1134.43 C 634.337 1133.44 637.621 1126.67 638.125 1124.06 z" fill="rgb(210,192,166)" transform="translate(0,0)"></path>
<path d="M 613.729 1189.24 C 617.254 1187.37 614.659 1187.44 615.517 1184.69 C 615.452 1184.9 620.759 1180.99 622.081 1182.47 C 622.417 1184.05 618.315 1186.91 622.004 1190.76 C 623.137 1191.94 622.332 1193.83 621.393 1195.12 C 617.467 1195.77 613.231 1191.77 613.729 1189.24 z" fill="rgb(210,192,166)" transform="translate(0,0)"></path>
<path d="M 613.729 1189.24 C 616.465 1189.71 621.648 1191.62 621.393 1195.12 C 617.467 1195.77 613.231 1191.77 613.729 1189.24 z" fill="rgb(254,253,254)" transform="translate(0,0)"></path>
<path d="M 783.869 1125.69 C 784.376 1126.16 784.883 1126.63 785.39 1127.1 C 787.552 1128.72 787.224 1129.21 785.772 1130.99 C 784.23 1132.88 789.874 1134.26 787.384 1136 C 784.882 1137.75 789.172 1139.67 788.782 1142.04 C 788.632 1142.97 787.114 1143.97 786.408 1144.61 L 784.997 1146.06 C 779.554 1141.35 787.028 1143.87 784.737 1136.15 C 783.413 1131.69 781.948 1132.57 780.806 1130 C 781.284 1129 783.05 1126.99 783.869 1125.69 z" fill="rgb(229,218,201)" transform="translate(0,0)"></path>
<path d="M 763.071 1126.92 C 762.63 1125.14 762.234 1123.49 761.619 1121.76 L 762.027 1120.71 C 761.908 1120.59 761.79 1120.48 761.671 1120.37 L 761.317 1120.41 C 761.326 1120.17 761.336 1119.93 761.345 1119.69 C 763.959 1120.8 765.354 1120.33 763.998 1117.51 C 764.27 1116.27 766.62 1116.95 767.28 1117.47 C 768.553 1118.47 766.331 1120.1 768.623 1120.76 C 770.804 1121.39 772.621 1123.45 773.678 1125.35 L 773.222 1126.13 L 773.299 1126.2 C 771.977 1126.32 769.537 1124.75 768.179 1124.17 C 767.73 1123.51 767.976 1123.71 767.562 1123.43 C 766.714 1123.43 764.126 1126.15 763.071 1126.92 z" fill="rgb(254,253,254)" transform="translate(0,0)"></path>
<path d="M 627.7 1192.09 C 628.344 1192.57 629.993 1193.72 629.587 1194.03 C 629.993 1193.72 625.856 1203.66 626.895 1202.38 C 624.427 1203.23 625.487 1201.54 623.241 1204.58 C 623.182 1204.98 623.458 1206.53 622.566 1206.39 C 621.671 1205.56 620.732 1202.97 621.242 1202.19 C 624.761 1196.77 625.168 1199.45 627.7 1192.09 z" fill="rgb(229,218,201)" transform="translate(0,0)"></path>
<path d="M 789.692 1116.2 C 790.942 1116.01 790.993 1116.13 792.05 1116.99 C 795.641 1119.94 791.941 1120.5 791.62 1121.93 C 792.308 1123.14 794.376 1122.86 794.526 1123.6 C 795.195 1126.91 793.461 1125.37 792.319 1124.16 C 790.721 1124.52 787.924 1125.7 786.831 1124.2 C 784.077 1120.43 790.446 1120.81 790.685 1120.71 C 792.278 1117.7 786.015 1119.44 789.692 1116.2 z" fill="rgb(229,218,201)" transform="translate(0,0)"></path>
<path d="M 809.16 1244 C 808.364 1241.37 809.116 1236.8 812.636 1239.42 C 813.901 1240.36 814.997 1242.92 813.295 1243.93 C 812.061 1244.86 812.548 1248.69 810.566 1248.96 C 808.903 1249.15 808.987 1246.36 808.9 1245.32 L 809.16 1244 z" fill="rgb(229,218,201)" transform="translate(0,0)"></path>
<path d="M 654.821 1138.13 C 657.673 1138.86 648.259 1145.49 647.709 1145.47 C 642.2 1136.52 648.487 1141.75 654.821 1138.13 z" fill="rgb(229,218,201)" transform="translate(0,0)"></path>
<path d="M 655.652 1155.71 C 655.967 1155.96 656.72 1156.52 656.979 1156.86 C 657.443 1157.47 657.614 1158.26 657.446 1159.01 C 656.985 1160.98 654.571 1161.96 653.144 1163.08 L 651.689 1164.22 C 648.794 1160.05 652.101 1159.83 655.652 1155.71 z" fill="rgb(254,253,254)" transform="translate(0,0)"></path>
<path d="M 643.36 1284.28 C 644.039 1284.67 644.719 1285.05 645.398 1285.44 L 646.72 1286.35 C 650.91 1289.2 648.989 1289.55 645.725 1293.65 C 644.717 1293.59 643.697 1293.79 643.016 1292.92 C 642.937 1288.47 647.875 1294.75 643.36 1284.28 z" fill="rgb(229,218,201)" transform="translate(0,0)"></path>
<path d="M 778.203 1092.91 C 777.174 1090.43 776.817 1089.1 779.928 1090.24 C 781.522 1094.21 788.243 1093.89 783.839 1096.88 C 782.734 1096.95 779.569 1093.86 778.203 1092.91 z" fill="rgb(210,192,166)" transform="translate(0,0)"></path>
<path d="M 778.203 1092.91 C 777.174 1090.43 776.817 1089.1 779.928 1090.24 C 779.535 1091.64 779.337 1091.6 778.203 1092.91 z" fill="rgb(229,218,201)" transform="translate(0,0)"></path>
<path d="M 770.216 1146.74 C 774.474 1148.85 766.576 1149.34 765.76 1156.32 L 765.481 1158.07 C 760.249 1148.19 764.224 1155.43 770.216 1146.74 z" fill="rgb(210,192,166)" transform="translate(0,0)"></path>
<path d="M 655.473 1309.12 C 655.955 1309.08 656.072 1309.02 656.556 1309.12 C 656.966 1309.78 656.566 1310.46 655.939 1310.74 C 653.092 1312.01 652.768 1314.01 651.808 1316.64 C 646.674 1314.92 651.197 1311.2 653.982 1309.91 L 655.473 1309.12 z" fill="rgb(229,218,201)" transform="translate(0,0)"></path>
<path d="M 636.985 1281.89 C 638.919 1283.88 640.378 1285.44 638.346 1287.75 L 637.492 1288.76 C 630.991 1286.92 633.523 1286.96 636.039 1283.29 L 636.985 1281.89 z" fill="rgb(254,253,254)" transform="translate(0,0)"></path>
<path d="M 643.623 1175.72 C 646.267 1178.65 643.928 1181.76 641.657 1184.45 C 638.284 1181.57 641.555 1179.68 643.623 1175.72 z" fill="rgb(229,218,201)" transform="translate(0,0)"></path>
<path d="M 651.602 1147.82 C 652.975 1149.37 651.413 1153.07 650.735 1155.83 C 645.462 1151.25 646.556 1152.52 651.602 1147.82 z" fill="rgb(229,218,201)" transform="translate(0,0)"></path>
<path d="M 628.085 1230.78 C 628.365 1230.89 628.645 1231 628.926 1231.11 C 628.953 1230.99 626.253 1235.77 625.827 1236.14 C 620.094 1235.87 625.729 1233.33 628.085 1230.78 z" fill="rgb(210,192,166)" transform="translate(0,0)"></path>
<path d="M 667.959 1147.84 C 672.036 1150.08 672.856 1150.15 674.67 1154.02 C 670.417 1152.06 668.466 1152.48 667.959 1147.84 z" fill="rgb(210,192,166)" transform="translate(0,0)"></path>
<path d="M 656.246 1146.77 C 657.78 1145.74 660.476 1144.24 659.633 1147.48 C 657.782 1148.95 657.284 1148.93 656.246 1146.77 z" fill="rgb(254,253,254)" transform="translate(0,0)"></path>
<path d="M 644.509 1190.71 C 646.959 1192.54 648.086 1192.49 646.666 1194.57 C 643.19 1195.74 644.085 1194 644.509 1190.71 z" fill="rgb(229,218,201)" transform="translate(0,0)"></path>
<path d="M 637.506 1321.11 C 640.115 1320.95 640.798 1323.04 641.029 1325.31 L 641.221 1326.89 C 639.616 1324.98 636.502 1322.96 637.506 1321.11 z" fill="rgb(210,192,166)" transform="translate(0,0)"></path>
<path d="M 761.446 1128.23 L 764.534 1128.47 C 764.933 1130.32 766.871 1134.04 764.553 1134.14 C 763.146 1133.02 762.595 1131.5 762.027 1129.84 L 761.446 1128.23 z" fill="rgb(229,218,201)" transform="translate(0,0)"></path>
<path d="M 634.644 1139.39 C 636.86 1138.89 636.818 1139.56 636.052 1141.8 C 635.336 1141.95 634.091 1142.57 633.523 1141.83 C 633.436 1141.24 633.827 1140.73 634.125 1140.25 L 634.644 1139.39 z" fill="rgb(254,253,254)" transform="translate(0,0)"></path>
<path d="M 618.525 1147.01 C 620.131 1147 621.559 1148.13 623.201 1148.78 C 623.246 1149.18 623.039 1149.33 622.578 1150.1 C 618.597 1147.89 617.112 1149.8 618.525 1147.01 z" fill="rgb(210,192,166)" transform="translate(0,0)"></path>
<path d="M 604.85 1193.2 C 604.812 1192.59 604.67 1192.06 604.875 1191.52 C 605.682 1191.19 605.9 1191.52 606.829 1191.77 C 606.479 1193.44 606.472 1193.15 604.85 1193.2 z" fill="rgb(229,218,201)" transform="translate(0,0)"></path>
<path d="M 648.66 1301.14 C 649.229 1300.93 649.798 1300.72 650.367 1300.52 C 650.043 1300.92 649.719 1301.32 649.395 1301.72 C 649.086 1301.82 648.132 1302.17 647.809 1302.16 C 648.093 1301.82 648.376 1301.48 648.66 1301.14 z" fill="rgb(229,218,201)" transform="translate(0,0)"></path>
<path d="M 778.033 1127.09 C 778.553 1126.91 779.32 1126.5 779.748 1127.04 C 779.709 1127.55 779.589 1127.49 779.077 1128.01 C 778.883 1128.52 778.764 1129.3 778.214 1129.29 C 777.848 1128.6 778.005 1127.87 778.033 1127.09 z" fill="rgb(210,192,166)" transform="translate(0,0)"></path>
<path d="M 792.7 1229.34 C 793.505 1229.08 793.66 1228.91 794.134 1229.12 C 794.258 1229.69 794.251 1230.21 794.257 1230.82 C 793.449 1231.01 793.792 1231 793.24 1230.97 C 792.778 1230.64 792.79 1229.85 792.7 1229.34 z" fill="rgb(229,218,201)" transform="translate(0,0)"></path>
<path d="M 637.245 1313.38 C 637.94 1313.46 638.083 1313.38 638.376 1313.7 C 638.232 1314.15 638.088 1314.6 637.944 1315.05 C 637.309 1314.85 637.023 1314.87 636.663 1314.47 C 636.691 1313.99 636.883 1313.9 637.245 1313.38 z" fill="rgb(229,218,201)" transform="translate(0,0)"></path>
<path d="M 629.356 1226.35 C 629.866 1226.31 630.131 1226.18 630.491 1226.39 C 630.426 1226.74 630.174 1227.31 629.947 1227.75 C 629.402 1227.69 628.975 1227.76 628.603 1227.45 C 628.662 1226.99 629.004 1226.76 629.356 1226.35 z" fill="rgb(229,218,201)" transform="translate(0,0)"></path>
<path d="M 655.298 1340.39 C 655.589 1340.31 656.207 1340.01 656.587 1340.18 C 656.337 1340.74 656.007 1341.16 655.618 1341.68 C 654.935 1341.81 654.754 1341.92 654.46 1341.76 C 654.572 1341.49 655.045 1340.74 655.298 1340.39 z" fill="rgb(229,218,201)" transform="translate(0,0)"></path>
<path d="M 604.85 1193.2 C 604.312 1196.6 605.203 1198.96 601.931 1197.8 C 602.179 1196.37 603.06 1195.54 603.958 1194.45 L 604.85 1193.2 z" fill="rgb(210,192,166)" transform="translate(0,0)"></path>
<path d="M 635.331 1303.37 C 635.626 1303.3 636.224 1303.01 636.598 1303.17 C 636.341 1303.74 636.007 1304.17 635.612 1304.69 C 634.931 1304.75 634.795 1304.84 634.52 1304.66 C 634.637 1304.37 635.065 1303.73 635.331 1303.37 z" fill="rgb(229,218,201)" transform="translate(0,0)"></path>
<path d="M 671.066 1098.91 C 671.67 1098.62 671.455 1098.66 671.775 1098.65 C 672.05 1098.82 671.884 1098.67 672.248 1099.28 C 672.026 1099.31 671.804 1099.35 671.582 1099.39 C 671.205 1099.2 671.396 1099.34 671.066 1098.91 z" fill="rgb(210,192,166)" transform="translate(0,0)"></path>
<path d="M 778.784 1224.24 C 779.398 1224.19 779.188 1224.15 779.493 1224.27 C 779.524 1224.61 779.547 1224.36 779.161 1225.23 C 778.803 1225.19 778.445 1225.15 778.087 1225.1 L 778.067 1225.01 C 778.283 1224.66 778.103 1224.9 778.784 1224.24 z" fill="rgb(229,218,201)" transform="translate(0,0)"></path>
<path d="M 601.096 1173.2 C 601.538 1172.97 601.744 1172.79 602.025 1172.86 C 602.279 1173.2 602.214 1173.47 602.272 1173.99 C 601.925 1174.03 601.578 1174.06 601.231 1174.09 C 601.186 1173.79 601.141 1173.5 601.096 1173.2 z" fill="rgb(210,192,166)" transform="translate(0,0)"></path>
<path d="M 605.662 1180.12 C 606.389 1180.05 606.283 1180.41 606.782 1180.97 C 605.963 1180.94 606.217 1181.02 605.871 1180.85 C 605.689 1180.57 605.781 1180.78 605.662 1180.12 z" fill="rgb(210,192,166)" transform="translate(0,0)"></path>
<path d="M 657.537 1094.25 C 658.122 1094.31 657.912 1094.24 658.227 1094.4 C 658.293 1094.65 658.279 1094.47 658.127 1095.09 C 657.713 1095.14 657.299 1095.18 656.884 1095.23 L 656.853 1095.16 C 657.037 1094.76 656.874 1095.03 657.537 1094.25 z" fill="rgb(210,192,166)" transform="translate(0,0)"></path>
<path d="M 785.739 1226.35 C 785.932 1226.33 786.125 1226.31 786.318 1226.29 C 786.49 1226.56 786.405 1226.35 786.452 1227.1 C 786.285 1227.06 786.117 1227.02 785.95 1226.98 C 785.743 1226.69 785.83 1226.88 785.739 1226.35 z" fill="rgb(210,192,166)" transform="translate(0,0)"></path>
<path d="M 811.818 1260.14 C 812.542 1260.06 812.366 1260.39 812.803 1260.98 C 812.044 1260.97 812.274 1261.04 811.965 1260.88 C 811.809 1260.6 811.883 1260.81 811.818 1260.14 z" fill="rgb(210,192,166)" transform="translate(0,0)"></path>
<path d="M 617.554 1310.82 C 617.825 1310.73 618.095 1310.64 618.366 1310.54 C 618.618 1310.74 618.466 1310.57 618.786 1311.25 C 618.473 1311.36 618.16 1311.47 617.847 1311.57 C 617.749 1311.32 617.652 1311.07 617.554 1310.82 z" fill="rgb(210,192,166)" transform="translate(0,0)"></path>
<path d="M 770.134 1325.91 C 770.843 1325.77 770.643 1325.75 771.182 1326.29 C 770.99 1326.32 770.798 1326.35 770.606 1326.38 C 770.282 1326.21 770.447 1326.34 770.134 1325.91 z" fill="rgb(210,192,166)" transform="translate(0,0)"></path>
<path d="M 636.332 1221.87 C 636.989 1221.66 636.826 1221.86 637.388 1222.25 C 637.169 1222.3 636.951 1222.35 636.732 1222.39 C 636.405 1222.19 636.567 1222.34 636.332 1221.87 z" fill="rgb(210,192,166)" transform="translate(0,0)"></path>
<path d="M 639.097 1274.93 C 639.82 1274.78 639.618 1274.75 640.171 1275.29 C 639.976 1275.33 639.781 1275.37 639.586 1275.4 C 639.231 1275.22 639.414 1275.36 639.097 1274.93 z" fill="rgb(210,192,166)" transform="translate(0,0)"></path>
<path d="M 657.159 1335.18 C 657.523 1335.17 657.887 1335.16 658.251 1335.15 C 658.205 1335.47 657.785 1335.8 657.626 1335.98 C 657.132 1335.86 657.319 1335.94 657.027 1335.76 C 657.016 1335.46 656.993 1335.64 657.159 1335.18 z" fill="rgb(229,218,201)" transform="translate(0,0)"></path>
<path d="M 776.394 1116.31 C 776.622 1116.34 776.849 1116.37 777.077 1116.4 L 777.114 1116.55 L 776.808 1117.02 C 776.48 1117.08 776.152 1117.14 775.824 1117.2 L 775.801 1117.15 C 775.968 1116.78 775.823 1117.03 776.394 1116.31 z" fill="rgb(210,192,166)" transform="translate(0,0)"></path>
<path d="M 784.168 1325.92 C 784.338 1325.91 784.507 1325.91 784.676 1325.91 C 784.949 1326.11 784.817 1325.96 785.027 1326.45 C 784.746 1326.64 784.465 1326.83 784.184 1327.01 L 784.115 1326.96 C 784.057 1326.55 784.07 1326.84 784.168 1325.92 z" fill="rgb(210,192,166)" transform="translate(0,0)"></path>
<path d="M 665.522 1143.31 C 665.578 1143.38 665.643 1143.44 665.691 1143.51 C 665.841 1143.74 665.531 1144.45 665.508 1144.53 C 665.037 1144.06 665.135 1144.24 665.046 1143.95 C 665.159 1143.64 665.049 1143.84 665.522 1143.31 z" fill="rgb(210,192,166)" transform="translate(0,0)"></path>
<path d="M 1006.63 988.901 C 1006.04 953.252 1006.46 853.507 982.706 829.87 C 971.748 818.967 956.264 820.604 950.679 815.485 L 950.864 812.48 C 953.201 811.022 955.761 810.504 959.081 810.495 C 1005.06 810.372 1051.07 810.839 1097.05 810.844 C 1097.65 811.121 1098.26 811.398 1098.87 811.675 C 1099.69 814.209 1099.53 814.071 1098.69 816.648 C 1095.17 818.453 1089.78 818.468 1085.53 819.649 C 1068.54 824.371 1058.87 836.288 1054.26 852.871 C 1042.72 894.385 1041.56 945.6 1040.7 988.381 C 1082.98 988.862 1161.37 990.855 1192.76 959.939 C 1200.16 952.649 1202.86 944.395 1207.51 935.036 L 1208.71 935.484 C 1211.82 945.348 1210.09 1033.33 1209.81 1048.3 C 1210.02 1054.74 1210.58 1060.89 1209.11 1067.16 L 1207.85 1068.22 C 1205.29 1065.83 1205.12 1063.07 1204.27 1059.55 C 1186.06 1011.95 1138.29 1014.43 1095.93 1014.54 L 1040.31 1014.76 C 1039.74 1056.97 1041.72 1098.93 1042.99 1141.99 C 1045.86 1238.87 1049.25 1337.68 1068.27 1433 C 1073.37 1458.57 1086.08 1455.27 1103.97 1465.13 L 1103.87 1466.4 C 1100.84 1467.6 1096.92 1468.09 1093.66 1468.04 C 1058.51 1467.6 1023.31 1468.03 988.167 1467.95 C 975.296 1467.92 956.689 1469.12 944.57 1466.74 C 944.963 1460.34 966.237 1458.84 970.676 1452.89 C 986.315 1431.92 987.396 1392.03 989.776 1366.86 C 993.122 1330.79 995.836 1294.67 997.917 1258.5 L 1004.53 1131.11 C 1006.42 1091.76 1008.52 1053.95 1008.5 1014.38 L 967.931 1013.75 C 963.393 1014.24 960.11 1013.98 955.608 1013.74 C 918.622 1013.83 869.135 1010.65 847.327 1048.86 C 844.405 1053.98 842.007 1064.38 837.933 1066.92 L 836.432 1066.47 C 834.711 1063.15 835.488 974.918 835.95 965.726 C 835.412 960.484 834.601 937.26 838.428 933.827 C 840.532 935.486 840.472 936.474 841.26 939.1 C 851.292 958.803 864.432 969.709 885.661 976.241 C 922.759 987.657 967.981 988.398 1006.63 988.901 z" fill="rgb(184,153,115)" transform="translate(0,0)"></path>
<path d="M 955.608 1013.74 C 951.929 1011.23 949.839 1016.11 943.546 1007.59 C 943.385 1012.41 937.04 1007.8 936.384 1007.57 C 935.541 1008.16 934.976 1008.99 934.033 1009.44 C 933.408 1009.4 933.672 1009.52 933.23 1009.11 C 932.66 1007.17 934.265 1003.67 936.154 1002.23 C 937.325 1001.34 945.039 994.593 945.952 994.902 C 954.746 997.873 936.067 1001.59 944.469 1004.68 C 944.939 1004.86 948.657 1004.35 948.994 1003.5 C 954.995 1000.07 951.505 998.227 955.097 995.108 C 956.022 997.367 959.504 1003.56 958.813 1005.42 C 960.274 1008.07 964.361 1007.47 965.2 1002.84 C 967.926 1003.85 969.832 1001.53 971.784 999.55 C 972.04 1000.26 973.353 1004.79 973.602 1004.96 C 975.342 1004.6 974.499 1001.09 978.601 1003.32 C 980.967 1004.61 981.784 1001.52 982.96 1001.68 C 986.785 1002.17 983.808 1005.63 983.819 1005.92 L 984.606 1006.63 C 987.262 1009.05 985.189 1009.92 988.007 1012.04 C 988.53 1012.44 995.718 1010.51 995.571 1010.62 C 991.382 1010.29 992.164 1006.86 994.659 1007.27 C 995.638 1007.43 998.716 1010.74 998.776 1011.86 C 998.657 1012.15 998.538 1012.45 998.42 1012.74 C 989.837 1013.76 976.035 1012 967.931 1013.75 C 963.393 1014.24 960.11 1013.98 955.608 1013.74 z" fill="rgb(210,192,166)" transform="translate(0,0)"></path>
<path d="M 951.967 1005.45 C 952.705 1004.89 953.694 1004.8 954.524 1005.21 C 955.354 1005.62 955.882 1006.46 955.887 1007.39 C 955.893 1008.31 955.375 1009.16 954.55 1009.58 C 953.422 1010.15 952.044 1009.77 951.373 1008.7 C 950.702 1007.62 950.96 1006.22 951.967 1005.45 z" fill="rgb(254,253,254)" transform="translate(0,0)"></path>
<path d="M 955.097 995.108 C 957.317 992.077 965.323 991.922 969.219 991.877 C 964.938 995.636 960.65 995.75 955.097 995.108 z" fill="rgb(210,192,166)" transform="translate(0,0)"></path>
<path d="M 965.2 1002.84 C 965.922 999.549 969.015 997.583 971.784 999.55 C 969.832 1001.53 967.926 1003.85 965.2 1002.84 z" fill="rgb(229,218,201)" transform="translate(0,0)"></path>
<path d="M 1009.74 1147.87 C 1010.05 1146.01 1010.19 1143.84 1009.95 1141.96 C 1009.17 1140.68 1012.58 1138.43 1012.06 1137.96 C 1008.27 1135.48 1012.53 1132.38 1011.37 1130.43 C 1007.42 1123.8 1014.92 1122.78 1018.41 1126.41 L 1020.52 1128.64 C 1023.26 1133.96 1025.49 1129.08 1027.61 1134.52 C 1028.12 1135.83 1032.63 1133.45 1036.16 1133.38 C 1039.31 1135.14 1037.16 1134.63 1036.81 1136.08 C 1030.51 1144.38 1042.24 1139.08 1037.55 1146.73 C 1038.19 1149.4 1040.32 1150.93 1039.47 1154.57 C 1039.04 1156.41 1037.11 1156.03 1036.6 1157.61 C 1037.28 1160.27 1040.16 1162.86 1039.52 1166.55 C 1039.27 1167.96 1038.8 1168.26 1037.93 1168.96 C 1035.93 1169.27 1030.94 1157.02 1027.45 1166.28 C 1025.86 1166.87 1025.73 1164.48 1024.48 1164.52 C 1022.21 1165.92 1018.25 1166.31 1020.82 1162.09 C 1020.13 1158.83 1014.5 1160.99 1010.51 1156.3 C 1009.39 1154.97 1008.87 1153.23 1009.07 1151.5 C 1009.22 1150.29 1009.5 1149.07 1009.74 1147.87 z" fill="rgb(210,192,166)" transform="translate(0,0)"></path>
<path d="M 1009.74 1147.87 C 1010.05 1146.01 1010.19 1143.84 1009.95 1141.96 C 1009.17 1140.68 1012.58 1138.43 1012.06 1137.96 C 1008.27 1135.48 1012.53 1132.38 1011.37 1130.43 C 1007.42 1123.8 1014.92 1122.78 1018.41 1126.41 L 1020.52 1128.64 C 1018.4 1130.97 1017.71 1132.21 1014.64 1133.02 C 1014.19 1133.23 1013.85 1133.31 1013.81 1133.89 C 1013.62 1137.09 1016.37 1137.84 1015.46 1141.5 C 1014.75 1144.39 1017.19 1144.28 1018.49 1144.77 L 1018.58 1144.94 C 1015.73 1149 1014.42 1147.82 1009.74 1147.87 z" fill="rgb(254,253,254)" transform="translate(0,0)"></path>
<path d="M 1036.16 1133.38 C 1039.31 1135.14 1037.16 1134.63 1036.81 1136.08 C 1035.06 1135.34 1035.59 1135.02 1036.16 1133.38 z" fill="rgb(229,218,201)" transform="translate(0,0)"></path>
<path d="M 1022.38 1155.32 C 1025.32 1155.18 1028.17 1153.88 1027.44 1157.18 C 1024.81 1158.43 1024.11 1157.16 1022.38 1155.32 z" fill="rgb(184,153,115)" transform="translate(0,0)"></path>
<path d="M 1039.67 1309.52 L 1039.33 1307.8 C 1036.8 1295.52 1049.7 1299.98 1042.11 1308.7 C 1050.12 1314.6 1043.48 1318.5 1045.06 1322.01 C 1047.8 1328.12 1027.16 1335.45 1032.31 1329.45 C 1030.7 1328.65 1029 1328.16 1028.06 1326.51 C 1027.9 1326.22 1026.17 1323.52 1025.39 1323.52 C 1022.43 1325.6 1026.12 1326.97 1020.73 1328.48 C 1011.08 1331.18 1016.54 1323.53 1010.27 1317.91 C 1007.72 1314.23 1009.05 1311.27 1011.98 1314.98 C 1015.7 1315.87 1021.12 1319.65 1023.68 1318.04 C 1027.52 1315.62 1023.74 1310.51 1029.55 1314.18 C 1032.18 1313.69 1030.33 1311.26 1034.72 1312.2 C 1036.91 1310.8 1037.3 1310.41 1039.67 1309.52 z" fill="rgb(210,192,166)" transform="translate(0,0)"></path>
<path d="M 1039.67 1309.52 L 1039.33 1307.8 C 1036.8 1295.52 1049.7 1299.98 1042.11 1308.7 C 1050.12 1314.6 1043.48 1318.5 1045.06 1322.01 C 1047.8 1328.12 1027.16 1335.45 1032.31 1329.45 C 1032.8 1328.52 1034.59 1325.31 1034.17 1324 C 1032.63 1319.19 1043.67 1316.63 1036.3 1312.89 C 1035.77 1312.66 1035.25 1312.43 1034.72 1312.2 C 1036.91 1310.8 1037.3 1310.41 1039.67 1309.52 z" fill="rgb(254,253,254)" transform="translate(0,0)"></path>
<path d="M 1010.27 1317.91 C 1007.72 1314.23 1009.05 1311.27 1011.98 1314.98 C 1011.56 1316.52 1011.37 1316.48 1010.27 1317.91 z" fill="rgb(254,253,254)" transform="translate(0,0)"></path>
<path d="M 1012.79 1166.16 C 1016.17 1166.21 1016.89 1168.27 1019.96 1166.35 C 1020.96 1165.73 1026.18 1171.76 1024.08 1173.95 C 1020.34 1177.85 1020.03 1172.42 1019.83 1170.04 C 1012.03 1172.05 1013.04 1176.65 1010.64 1177.31 C 1004.36 1179.04 1012.15 1167.36 1011.89 1167.86 L 1012.79 1166.16 z" fill="rgb(254,253,254)" transform="translate(0,0)"></path>
<path d="M 1014.33 1421.34 C 1017.18 1420.87 1017.41 1421.58 1020.06 1423.95 C 1022.56 1426.2 1017.83 1426.97 1022.07 1429.97 C 1025.85 1435.36 1018.32 1432.3 1017.37 1431.6 C 1017.12 1431.66 1016.67 1432.72 1015.47 1433.05 C 1012.35 1432.17 1014.08 1427.14 1011.29 1424.05 C 1009.73 1421.84 1012.69 1421.55 1014.33 1421.34 z" fill="rgb(210,192,166)" transform="translate(0,0)"></path>
<path d="M 1011.29 1424.05 C 1009.73 1421.84 1012.69 1421.55 1014.33 1421.34 C 1012.99 1422.99 1013.09 1422.96 1011.29 1424.05 z" fill="rgb(254,253,254)" transform="translate(0,0)"></path>
<path d="M 1021.04 1402.43 C 1024.53 1404.24 1023.72 1404.5 1026.55 1406.75 C 1027.27 1406.85 1027.78 1406.61 1028.46 1406.37 C 1027.56 1405.7 1033.06 1410.68 1032.42 1409.8 C 1035.33 1413.84 1036.96 1408.97 1038.81 1412.33 C 1038.39 1413.11 1038.01 1413.94 1037.53 1414.67 C 1035.65 1417.54 1034.05 1413.68 1033.65 1413.59 C 1029.67 1412.72 1028.38 1413.55 1024.93 1409.96 C 1021.94 1407.16 1022.09 1408.68 1021.4 1404.4 L 1021.04 1402.43 z" fill="rgb(254,253,254)" transform="translate(0,0)"></path>
<path d="M 1020.78 1277.97 C 1021.26 1277.98 1021.32 1277.91 1021.58 1278.15 C 1022.56 1282.69 1013.35 1286.23 1010.38 1287.14 C 1010.17 1283.32 1011.09 1283.77 1012.79 1280.39 C 1016.16 1273.68 1013.99 1282.54 1020.78 1277.97 z" fill="rgb(254,253,254)" transform="translate(0,0)"></path>
<path d="M 1025.91 1252.01 C 1035.52 1260.62 1029.32 1261.74 1022.14 1264.63 C 1023.25 1259.95 1025.18 1256.25 1025.91 1252.01 z" fill="rgb(254,253,254)" transform="translate(0,0)"></path>
<path d="M 1031.15 967.268 C 1032.19 967.943 1032.01 967.911 1032.56 969.255 C 1033.52 970.819 1035.36 972.848 1034.6 974.831 C 1032.68 977.098 1036.1 980.986 1036.09 981.006 C 1033.24 986.037 1032.45 976.037 1029.96 976.508 C 1029.24 976.644 1029.49 976.698 1028.49 976.179 C 1028.54 975.502 1028.62 975.323 1028.87 974.689 C 1030.41 973.838 1030.63 969.039 1031.15 967.268 z" fill="rgb(210,192,166)" transform="translate(0,0)"></path>
<path d="M 1031.15 967.268 C 1032.19 967.943 1032.01 967.911 1032.56 969.255 C 1031.96 969.823 1031.88 970.188 1031.37 970.091 C 1031.09 969.353 1031.17 968.003 1031.15 967.268 z" fill="rgb(229,218,201)" transform="translate(0,0)"></path>
<path d="M 1037.91 1286.37 C 1041.69 1288.8 1033.27 1287.51 1037.82 1292.62 L 1037.48 1292.96 C 1034.11 1292.05 1034.53 1290.51 1030.24 1292.26 C 1027.7 1296.35 1026.4 1293.44 1027.16 1292.29 C 1029.25 1289.12 1034.44 1288.35 1037.91 1286.37 z" fill="rgb(210,192,166)" transform="translate(0,0)"></path>
<path d="M 1008.13 872.38 C 1014.81 876.419 1008.85 881.972 1008.43 884.235 L 1007.86 887.397 C 1007.81 887.71 1007.76 888.023 1007.71 888.335 C 1007.65 888.395 1007.59 888.455 1007.53 888.515 C 1005.95 887.512 1007.96 874.301 1008.13 872.38 z" fill="rgb(229,218,201)" transform="translate(0,0)"></path>
<path d="M 1014.86 1201.19 C 1018.46 1200.82 1013.83 1206.3 1009.8 1207.66 C 1004.41 1198.76 1010.86 1203.95 1014.86 1201.19 z" fill="rgb(254,253,254)" transform="translate(0,0)"></path>
<path d="M 1012.69 867.239 C 1011.54 866.179 1005.68 861.714 1006.47 860.461 C 1010.46 854.118 1012.8 865.702 1014.67 866.927 L 1012.69 867.239 z" fill="rgb(229,218,201)" transform="translate(0,0)"></path>
<path d="M 1021.44 896.641 C 1025.38 898.659 1022.18 899.642 1019.48 903.916 L 1018.01 906.285 C 1013.69 903.382 1019.07 899.648 1021.44 896.641 z" fill="rgb(254,253,254)" transform="translate(0,0)"></path>
<path d="M 1036.49 1416.41 C 1037.64 1416.62 1039.87 1416.61 1040.4 1417.96 C 1040.05 1419.07 1037.94 1419.73 1038.34 1420.82 C 1041.35 1421.62 1041.06 1421.13 1043.71 1422.67 C 1037.49 1423.17 1033.64 1423.65 1036.49 1416.41 z" fill="rgb(229,218,201)" transform="translate(0,0)"></path>
<path d="M 1014.67 866.927 C 1020.38 875.5 1015.74 880.276 1012.69 867.239 L 1014.67 866.927 z" fill="rgb(254,253,254)" transform="translate(0,0)"></path>
<path d="M 1027.92 1282.06 C 1032.57 1284.92 1028.17 1286.3 1024.95 1287.97 C 1020.55 1286.74 1024.32 1284.68 1026.36 1283.28 L 1027.92 1282.06 z" fill="rgb(229,218,201)" transform="translate(0,0)"></path>
<path d="M 1001.19 1350.47 C 1002.48 1349.95 1003.96 1350.5 1004.6 1351.74 C 1005.25 1352.97 1004.85 1354.5 1003.68 1355.26 C 1002.82 1355.82 1001.71 1355.85 1000.82 1355.32 C 999.932 1354.8 999.419 1353.81 999.497 1352.78 C 999.576 1351.75 1000.23 1350.86 1001.19 1350.47 z" fill="rgb(254,253,254)" transform="translate(0,0)"></path>
<path d="M 1019.85 1269.11 C 1020.12 1270.1 1020.73 1271.74 1020.58 1272.81 C 1019.74 1273.79 1017.82 1271.16 1017.66 1270.75 C 1016.47 1267.56 1014.76 1268.91 1013.44 1267.94 C 1013.23 1266.43 1016.11 1265.36 1017.26 1264.76 C 1018.14 1266.54 1018.76 1267.44 1019.85 1269.11 z" fill="rgb(229,218,201)" transform="translate(0,0)"></path>
<path d="M 1003.79 1279.53 C 1007.96 1282.32 1007.87 1283.31 1005.62 1287.68 C 1002.69 1285.08 1003.3 1283.74 1003.79 1279.53 z" fill="rgb(229,218,201)" transform="translate(0,0)"></path>
<path d="M 1020.18 1295.78 C 1022.59 1294.96 1025.96 1294.34 1026.23 1297.46 C 1021.53 1296.3 1019.76 1300.45 1020.18 1295.78 z" fill="rgb(210,192,166)" transform="translate(0,0)"></path>
<path d="M 1033.83 1425.72 C 1035.64 1427.5 1035.94 1430.59 1032.84 1430.72 C 1032.58 1430.76 1030.92 1431.3 1030.67 1430.57 C 1030.88 1429.9 1033.24 1426.68 1033.83 1425.72 z" fill="rgb(229,218,201)" transform="translate(0,0)"></path>
<path d="M 1027.01 1089.55 C 1030.21 1091.18 1024.3 1093.13 1022.44 1094.59 C 1019.96 1091.46 1022.69 1092.29 1025.44 1090.55 L 1027.01 1089.55 z" fill="rgb(210,192,166)" transform="translate(0,0)"></path>
<path d="M 1003.09 1271.8 C 1006.49 1271.69 1009.14 1270.88 1008.91 1274.9 C 1006.26 1275.8 1005.14 1273.62 1003.09 1271.8 z" fill="rgb(229,218,201)" transform="translate(0,0)"></path>
<path d="M 1021.31 1334.28 C 1022.03 1334.16 1022.18 1334.05 1022.45 1334.2 C 1021.81 1333.19 1024.19 1340.52 1024.14 1340.39 C 1020.22 1338.63 1018.93 1338.06 1021.31 1334.28 z" fill="rgb(229,218,201)" transform="translate(0,0)"></path>
<path d="M 1017.5 1299.7 C 1018.19 1302.29 1018.19 1303.29 1015.99 1305.06 C 1015.63 1304.87 1015.28 1304.67 1014.93 1304.47 C 1014.69 1304.33 1014.55 1304.07 1014.56 1303.79 C 1014.6 1302.69 1016.88 1300.46 1017.5 1299.7 z" fill="rgb(229,218,201)" transform="translate(0,0)"></path>
<path d="M 1002.88 1291.49 C 1004.94 1293.21 1005.62 1293.91 1003.08 1295.58 C 1002.63 1295.66 1002.18 1295.75 1001.73 1295.84 C 1001.08 1295.6 1001.51 1294.67 1001.69 1294.25 C 1001.91 1293.79 1002.14 1293.32 1002.36 1292.86 L 1002.88 1291.49 z" fill="rgb(229,218,201)" transform="translate(0,0)"></path>
<path d="M 1038.36 1275.37 C 1040.23 1275.17 1040.34 1275.58 1039.76 1277.21 C 1036.13 1277.97 1036.99 1277.49 1038.36 1275.37 z" fill="rgb(254,253,254)" transform="translate(0,0)"></path>
<path d="M 1033.83 962.418 C 1034.52 962.068 1034.9 961.727 1035.33 961.851 C 1035.32 962.481 1035.18 963.022 1035.03 963.661 C 1034.37 964.009 1034.06 964.318 1033.63 964.193 C 1033.61 963.581 1033.72 963.045 1033.83 962.418 z" fill="rgb(254,253,254)" transform="translate(0,0)"></path>
<path d="M 1019.16 1259.91 C 1017.71 1257.16 1017.14 1256.44 1020.57 1256.77 C 1020.15 1258.44 1020.11 1258.33 1019.16 1259.91 z" fill="rgb(229,218,201)" transform="translate(0,0)"></path>
<path d="M 1020.01 1355.18 C 1021.78 1354.86 1021.4 1355.2 1021.74 1356.71 C 1021.51 1356.87 1020.71 1357.56 1020.23 1357.47 C 1020.11 1357.44 1020.02 1357.38 1019.95 1357.27 C 1019.67 1356.78 1019.96 1355.53 1020.01 1355.18 z" fill="rgb(229,218,201)" transform="translate(0,0)"></path>
<path d="M 1008.46 1440.34 C 1009.3 1441.16 1009.44 1441.62 1008.95 1442.68 C 1006.01 1442.98 1006.96 1441.95 1008.46 1440.34 z" fill="rgb(229,218,201)" transform="translate(0,0)"></path>
<path d="M 1037.82 1178.29 C 1038.51 1178.09 1038.72 1177.91 1039.1 1178.1 C 1039.11 1178.26 1039.11 1178.41 1039.12 1178.56 C 1039.06 1178.91 1039 1179.26 1038.94 1179.61 C 1038.58 1179.75 1038.22 1179.89 1037.87 1180.04 C 1037.78 1179.45 1037.8 1178.9 1037.82 1178.29 z" fill="rgb(229,218,201)" transform="translate(0,0)"></path>
<path d="M 995.476 998.147 C 996.168 998.47 996.306 998.395 996.459 998.852 C 996.131 999.387 995.494 999.591 994.916 999.9 C 994.076 999.559 993.808 999.623 993.605 999.094 C 994.005 998.55 994.88 998.372 995.476 998.147 z" fill="rgb(229,218,201)" transform="translate(0,0)"></path>
<path d="M 1033.36 1120.18 C 1033.66 1120.01 1033.95 1119.85 1034.25 1119.68 C 1034.49 1120.04 1034.42 1120.43 1034.46 1120.93 C 1034.11 1121.05 1033.62 1121.26 1033.34 1121.14 C 1033.27 1120.76 1033.29 1121.03 1033.36 1120.18 z" fill="rgb(229,218,201)" transform="translate(0,0)"></path>
<path d="M 1016.06 895.872 C 1016.15 895.838 1016.25 895.807 1016.34 895.771 C 1016.6 895.669 1017.05 895.399 1017.37 895.494 C 1017.63 895.57 1017.81 896.173 1017.86 896.304 C 1017.6 896.467 1017.18 896.771 1016.88 896.834 C 1016.39 896.677 1016.41 896.475 1016.06 895.872 z" fill="rgb(210,192,166)" transform="translate(0,0)"></path>
<path d="M 1005.8 1264.09 C 1006.68 1264.06 1006.65 1263.82 1007.04 1264.54 C 1006.81 1264.76 1006.45 1265.21 1006.08 1265.33 L 1005.97 1265.27 C 1005.81 1264.83 1005.89 1265.15 1005.8 1264.09 z" fill="rgb(229,218,201)" transform="translate(0,0)"></path>
<path d="M 1029.24 1400.05 C 1029.75 1399.79 1030.03 1399.53 1030.51 1399.55 C 1030.74 1399.92 1030.63 1400.18 1030.62 1400.7 C 1030.18 1401.03 1029.98 1401.32 1029.53 1401.36 C 1029.23 1400.99 1029.3 1400.6 1029.24 1400.05 z" fill="rgb(210,192,166)" transform="translate(0,0)"></path>
<path d="M 1018.63 922.179 C 1019.38 922.172 1019.16 922.282 1019.56 923.048 C 1018.92 923.07 1019.12 923.123 1018.84 922.993 C 1018.66 922.687 1018.75 922.913 1018.63 922.179 z" fill="rgb(210,192,166)" transform="translate(0,0)"></path>
<path d="M 1027.74 1346.18 C 1027.93 1346.2 1028.12 1346.22 1028.3 1346.24 C 1028.59 1346.74 1028.56 1347.2 1028.59 1347.81 C 1028.13 1347.85 1027.96 1347.94 1027.64 1347.75 C 1027.56 1347.21 1027.65 1346.74 1027.74 1346.18 z" fill="rgb(229,218,201)" transform="translate(0,0)"></path>
<path d="M 1009.18 1189.88 C 1009.76 1189.64 1009.56 1189.67 1009.86 1189.67 C 1010.07 1189.84 1009.95 1189.7 1010.18 1190.27 C 1009.47 1190.27 1009.62 1190.26 1009.18 1189.88 z" fill="rgb(210,192,166)" transform="translate(0,0)"></path>
<path d="M 1016.23 964.094 C 1016.57 964.118 1016.92 964.141 1017.27 964.165 C 1017.22 964.553 1017.28 964.305 1017 964.957 C 1016.19 964.802 1016.41 964.914 1016.14 964.709 C 1016.09 964.396 1016.08 964.591 1016.23 964.094 z" fill="rgb(210,192,166)" transform="translate(0,0)"></path>
<path d="M 1030.75 1386.98 C 1031.12 1387.05 1030.9 1386.97 1031.42 1387.27 C 1031.2 1387.17 1030.97 1387.08 1030.75 1386.98 z" fill="rgb(210,192,166)" transform="translate(0,0)"></path>
<path d="M 1022.17 1350.58 C 1022.49 1350.58 1022.81 1350.58 1023.12 1350.57 C 1022.94 1350.72 1022.75 1350.86 1022.56 1351.01 C 1022.28 1350.91 1022.42 1351.01 1022.17 1350.58 z" fill="rgb(210,192,166)" transform="translate(0,0)"></path>
<path d="M 1345.66 1069.41 C 1384.38 1068.13 1410.31 1072 1447.67 1080.05 C 1448.26 1104.96 1447.27 1132.31 1446.5 1157.41 C 1446.41 1160.02 1444.86 1161.16 1442.94 1162.46 C 1439.63 1162.17 1437.66 1160.78 1435.57 1158.22 C 1431.08 1152.7 1427.09 1145.42 1423.35 1139.31 C 1417.17 1128.5 1410.01 1119.27 1402.31 1109.52 C 1380.73 1082.17 1338.65 1073.55 1310.78 1096.45 C 1293.96 1111.89 1286.44 1146.42 1305.91 1162.84 C 1312.77 1168.64 1319.74 1171.93 1327.93 1175.24 C 1364.75 1190.12 1410.55 1193.18 1440.29 1221.74 C 1454.97 1235.84 1459.88 1257.16 1459.95 1276.86 C 1460.03 1300.31 1452.5 1321.29 1435.48 1337.81 C 1399.99 1371.57 1354.12 1375.56 1308.18 1375.12 C 1277.3 1374.57 1248.23 1369.61 1218.06 1363.7 C 1219.89 1333.45 1220.17 1300.89 1222.89 1270.57 C 1223.14 1267.78 1225.09 1266.02 1227.32 1264.63 C 1235.5 1264.74 1240.44 1280.48 1244.21 1286.92 C 1254.84 1305.09 1264.05 1323.74 1279.17 1338.78 C 1304.88 1364.38 1347.19 1369.38 1374.48 1343.58 C 1382.67 1335.77 1385.98 1320.6 1385.1 1308.98 C 1382.45 1270.83 1331.8 1263.43 1301.49 1253.42 C 1252.21 1237.13 1209.93 1203.56 1223.59 1145.43 C 1236.41 1090.91 1295.49 1073.85 1345.66 1069.41 z" fill="rgb(184,153,115)" transform="translate(0,0)"></path>
<path d="M 1318.66 1194.09 C 1319.59 1194.07 1322.51 1193.92 1323.47 1194.22 C 1325.5 1194.82 1327.34 1194.62 1328.66 1196.39 C 1330.27 1198.57 1328.45 1200.31 1328.98 1202.32 C 1329.51 1204.14 1332.46 1204.03 1333.24 1204.7 C 1334.15 1205.48 1337.9 1205.64 1337.72 1206.49 C 1337.29 1207.57 1337.91 1210.41 1336.84 1211.26 C 1335.96 1211.96 1334.5 1211.4 1333.42 1212.28 C 1332.13 1213.07 1330.65 1215.51 1332.62 1216.55 C 1333.8 1217.05 1336.03 1218.83 1334 1220.12 C 1331.06 1221.98 1336.17 1224.95 1333.36 1228.26 C 1333.06 1228.61 1331.76 1230.66 1332.21 1231.25 C 1332.79 1232.01 1334.09 1232.02 1334.85 1232.53 C 1336.12 1233.43 1334.9 1235.43 1333.54 1234.93 C 1333.07 1234.87 1332.59 1234.82 1332.12 1234.76 C 1331.67 1234.77 1331.22 1234.77 1330.77 1234.78 C 1325.23 1239.72 1324.35 1229.55 1323.98 1231.09 C 1328.15 1227.42 1328.88 1232.52 1324.54 1225.4 C 1324.49 1221.71 1327.03 1220.34 1326.76 1217.95 C 1326.21 1213.04 1330.1 1215.09 1331.04 1213.6 L 1330.94 1213.31 L 1330.26 1212.79 C 1329.96 1212.1 1330.93 1211.58 1330.68 1210.79 C 1330.34 1209.7 1328.7 1209.7 1328.42 1208.65 C 1326.49 1207.8 1320.22 1211.3 1323.33 1202.47 C 1325.36 1196.67 1319.51 1199.4 1318.66 1194.09 z" fill="rgb(229,218,201)" transform="translate(0,0)"></path>
<path d="M 1251.72 1149.88 C 1253.5 1153.44 1251.6 1152.4 1251.57 1154.53 C 1252.11 1155.43 1261.62 1156.26 1253.79 1162.27 C 1246.36 1161.95 1247.1 1159.21 1246.96 1155.5 C 1246.82 1151.71 1247.97 1152.9 1250.82 1150.61 L 1251.72 1149.88 z" fill="rgb(210,192,166)" transform="translate(0,0)"></path>
<path d="M 1346.01 1241.88 C 1351.84 1244.98 1347.34 1247.52 1346.86 1248.88 C 1347.12 1249.4 1353.02 1252.21 1349.46 1253.93 C 1344.36 1253.42 1349.29 1252.15 1343.57 1257.08 C 1343.03 1256.17 1340.14 1252.85 1342.97 1252.47 C 1343.84 1252.36 1344.48 1252.42 1344.9 1251.7 C 1344.71 1249.37 1341.22 1247.62 1341.47 1246.47 C 1344.51 1244.09 1345.19 1246.75 1346.01 1241.88 z" fill="rgb(229,218,201)" transform="translate(0,0)"></path>
<path d="M 1419.91 1266.16 C 1418.71 1261.75 1418.41 1260.67 1420.93 1257.43 C 1420.73 1255.77 1418.75 1255.87 1419.12 1253.86 C 1420.65 1252.13 1425.27 1256.45 1426.14 1257.54 C 1426.51 1258.01 1424.45 1261.65 1424.03 1262.73 L 1423.58 1263.89 C 1423.68 1264.04 1423.78 1264.18 1423.88 1264.33 L 1423.8 1264.75 L 1424.29 1265.21 L 1424.29 1265.38 C 1421.88 1263.65 1422.91 1266.13 1419.91 1266.16 z" fill="rgb(210,192,166)" transform="translate(0,0)"></path>
<path d="M 1419.91 1266.16 C 1420.01 1265.5 1420.09 1263.05 1420.73 1262.6 C 1422.22 1263.45 1421.83 1264.88 1423.58 1263.89 C 1423.68 1264.04 1423.78 1264.18 1423.88 1264.33 L 1423.8 1264.75 L 1424.29 1265.21 L 1424.29 1265.38 C 1421.88 1263.65 1422.91 1266.13 1419.91 1266.16 z" fill="rgb(254,253,254)" transform="translate(0,0)"></path>
<path d="M 1234.22 1172.36 C 1236.52 1173.05 1241.98 1174.42 1242.13 1177 C 1241.64 1178 1240.95 1177.24 1240.26 1176.74 C 1236.01 1175.7 1232.45 1178.47 1231.64 1177.43 C 1231.52 1176.45 1233.67 1173.34 1234.22 1172.36 z" fill="rgb(229,218,201)" transform="translate(0,0)"></path>
<path d="M 1394.32 1236.75 C 1396.75 1238.58 1395.48 1240.96 1397.36 1241.03 C 1401.06 1238.04 1403.11 1239.11 1401.28 1243.1 C 1401.15 1243.06 1401.03 1243.02 1400.9 1242.97 C 1400.62 1242.86 1399.33 1242.18 1398.7 1242.29 C 1398.14 1242.39 1397.74 1242.59 1397.4 1243.04 C 1396.95 1243.65 1396.7 1244.2 1396.09 1244.66 C 1395.67 1244.97 1395.5 1245.07 1394.99 1245 C 1394.57 1244.46 1394.33 1237.76 1394.32 1236.75 z" fill="rgb(210,192,166)" transform="translate(0,0)"></path>
<path d="M 1263.88 1148.16 C 1264.93 1147.95 1266.72 1148.08 1266.72 1148.52 C 1266.71 1150.55 1269.64 1154 1269.92 1154.56 C 1269.85 1154.8 1269.93 1154.67 1269.63 1154.91 L 1269.54 1154.51 L 1268.68 1155.04 C 1268.23 1154.97 1267.78 1154.89 1267.34 1154.82 C 1266.58 1155.04 1264.81 1155.78 1264.2 1155.5 C 1264.37 1154.1 1269.1 1153.42 1266.35 1151.34 C 1264.77 1150.14 1264.02 1150.03 1263.88 1148.16 z" fill="rgb(210,192,166)" transform="translate(0,0)"></path>
<path d="M 1233.13 1151 C 1239.85 1149.94 1234.95 1154.19 1241.5 1160.08 C 1235.55 1163.38 1238 1154.15 1233.13 1151 z" fill="rgb(210,192,166)" transform="translate(0,0)"></path>
<path d="M 1362.12 1218.54 C 1366.69 1219.39 1365.65 1219.12 1368.51 1222.43 L 1368.98 1222.53 C 1368.88 1225.5 1368.59 1224.36 1369.4 1227.37 C 1369.15 1227.44 1368.89 1227.5 1368.64 1227.57 C 1367.91 1227.06 1362.85 1219.88 1362.12 1218.54 z" fill="rgb(229,218,201)" transform="translate(0,0)"></path>
<path d="M 1363.08 1209.38 C 1365.14 1209.27 1366.78 1212.94 1367.08 1214.41 C 1366.68 1215.26 1364.92 1217.5 1364.33 1218.3 C 1363.2 1217.24 1362.87 1209.88 1363.08 1209.38 z" fill="rgb(210,192,166)" transform="translate(0,0)"></path>
<path d="M 1275.66 1229.04 C 1278.63 1229.29 1282.54 1228.62 1283.38 1232.03 L 1283.75 1233.42 C 1280.65 1233.11 1277.05 1233.69 1276.01 1230.11 L 1275.66 1229.04 z" fill="rgb(254,253,254)" transform="translate(0,0)"></path>
<path d="M 1351.28 1219.36 C 1351.16 1219.26 1357.21 1226.05 1357.31 1226.19 C 1348.42 1226.72 1351.72 1226.53 1351.28 1219.36 z" fill="rgb(229,218,201)" transform="translate(0,0)"></path>
<path d="M 1291.94 1243.15 C 1291.8 1241.91 1292.57 1240.75 1293.76 1240.4 C 1294.96 1240.05 1296.24 1240.61 1296.79 1241.72 C 1297.34 1242.84 1297 1244.2 1296 1244.93 C 1295.26 1245.47 1294.29 1245.57 1293.45 1245.21 C 1292.62 1244.84 1292.04 1244.05 1291.94 1243.15 z" fill="rgb(229,218,201)" transform="translate(0,0)"></path>
<path d="M 1279.88 1162.16 C 1280.78 1161.99 1285.95 1162.08 1285.54 1164.36 C 1282.97 1167.43 1280.04 1164.45 1279.88 1162.16 z" fill="rgb(210,192,166)" transform="translate(0,0)"></path>
<path d="M 1276.89 1147.29 C 1279.28 1146.41 1280.76 1149.33 1280.81 1151.18 C 1280.3 1151.67 1279.85 1152.29 1279.25 1152.35 C 1277.66 1150.55 1276.72 1149.67 1276.89 1147.29 z" fill="rgb(210,192,166)" transform="translate(0,0)"></path>
<path d="M 1295.09 1235.91 C 1297.21 1228.9 1300.3 1235.67 1301.74 1238.95 C 1299.44 1237.82 1297.35 1237.01 1295.09 1235.91 z" fill="rgb(254,253,254)" transform="translate(0,0)"></path>
<path d="M 1431.54 1251.67 C 1435.37 1252.98 1437.03 1252.16 1435.49 1255.24 C 1431.41 1256.83 1431.9 1255.92 1431.54 1251.67 z" fill="rgb(254,253,254)" transform="translate(0,0)"></path>
<path d="M 1300.67 1242.5 C 1306.46 1244.85 1306.36 1249.5 1298.08 1245.5 L 1300.67 1242.5 z" fill="rgb(254,253,254)" transform="translate(0,0)"></path>
<path d="M 1310.22 1246.22 C 1312.63 1246.46 1316.53 1246.18 1317.62 1248.36 C 1312.41 1250.28 1312.29 1251.45 1310.22 1246.22 z" fill="rgb(229,218,201)" transform="translate(0,0)"></path>
<path d="M 1290.95 1222.12 C 1291.56 1221.92 1291.61 1221.83 1292.23 1221.88 C 1292.54 1222.16 1292.45 1222.01 1292.55 1222.31 C 1292.5 1222.4 1287.52 1224.62 1286.34 1225.5 C 1285.54 1225.19 1285.47 1225.24 1284.86 1224.66 C 1285.02 1221.25 1287.58 1223.58 1290.95 1222.12 z" fill="rgb(210,192,166)" transform="translate(0,0)"></path>
<path d="M 1346.56 1232.51 C 1349.93 1234.38 1350.31 1233.92 1347.83 1236.48 L 1346.95 1237.62 C 1343.1 1236.33 1342.07 1236.6 1345.47 1233.64 L 1346.56 1232.51 z" fill="rgb(229,218,201)" transform="translate(0,0)"></path>
<path d="M 1353.4 1235.78 L 1354.62 1236.3 L 1355.42 1236.65 C 1357.54 1237.57 1358.07 1237.62 1358.13 1239.75 C 1356.06 1240.16 1355.66 1239.11 1354.53 1237.39 L 1353.4 1235.78 z" fill="rgb(229,218,201)" transform="translate(0,0)"></path>
<path d="M 1438.09 1269.4 C 1438.65 1269.29 1439.7 1268.91 1440.31 1269.26 C 1440.65 1269.87 1439.86 1271.13 1439.63 1271.67 C 1437.85 1271.6 1437.1 1271.09 1438.09 1269.4 z" fill="rgb(229,218,201)" transform="translate(0,0)"></path>
<path d="M 1260.03 1133.87 C 1261.99 1135.51 1263.26 1135.83 1261.41 1137.56 C 1258.83 1138.74 1258.91 1137.57 1259.64 1135.21 L 1260.03 1133.87 z" fill="rgb(229,218,201)" transform="translate(0,0)"></path>
<path d="M 1310.48 1227.36 L 1311.78 1227.45 C 1314.87 1227.61 1313.09 1230.2 1312.42 1232.27 L 1310.73 1231.82 C 1306.67 1230.9 1308.52 1229.71 1310.48 1227.36 z" fill="rgb(229,218,201)" transform="translate(0,0)"></path>
<path d="M 1343.2 1227.45 C 1343.39 1227.53 1343.58 1227.61 1343.77 1227.69 C 1344.02 1227.82 1344.27 1227.96 1344.53 1228.08 C 1344.85 1228.24 1345.19 1228.38 1345.51 1228.54 C 1345.87 1228.72 1346.26 1229.1 1346.31 1229.51 C 1346.37 1229.95 1345.44 1231.02 1345.43 1231.04 L 1344.45 1231.04 C 1343.9 1231.04 1342.16 1231.32 1341.77 1230.73 C 1342.79 1228.82 1342.72 1229.74 1343.2 1227.45 z" fill="rgb(229,218,201)" transform="translate(0,0)"></path>
<path d="M 1299.96 1218.34 C 1300.42 1218.17 1300.87 1218.01 1301.32 1217.84 C 1301.28 1218.49 1301.12 1219.06 1300.96 1219.71 C 1300.54 1219.87 1300.12 1220.02 1299.7 1220.17 C 1299.71 1219.54 1299.83 1218.98 1299.96 1218.34 z" fill="rgb(229,218,201)" transform="translate(0,0)"></path>
<path d="M 1340.35 1223.98 C 1341.11 1223.81 1341.86 1223.53 1342.62 1223.76 C 1342.93 1224.48 1342.56 1224.28 1341.92 1224.94 C 1341.57 1225.13 1340.62 1225.83 1340.03 1225.66 C 1339.84 1225.6 1339.78 1225.53 1339.74 1225.36 C 1339.63 1224.94 1340.21 1224.2 1340.35 1223.98 z" fill="rgb(229,218,201)" transform="translate(0,0)"></path>
<path d="M 1312.42 1232.27 C 1314.61 1232.54 1313.96 1232.94 1313.51 1234.9 C 1311.62 1234.39 1312.19 1234.03 1312.42 1232.27 z" fill="rgb(210,192,166)" transform="translate(0,0)"></path>
<path d="M 1328.51 1248.97 C 1330.28 1248.2 1330.42 1248.14 1331.02 1249.97 C 1329.32 1250.61 1329.21 1250.69 1328.51 1248.97 z" fill="rgb(210,192,166)" transform="translate(0,0)"></path>
<path d="M 1433.01 1261.47 C 1433.46 1261.45 1434.11 1261.29 1434.46 1261.6 C 1434.37 1262.43 1434.09 1262.81 1433.71 1263.63 C 1432.84 1263.77 1432.69 1264.1 1432.13 1263.53 C 1432.13 1262.61 1432.46 1262.38 1433.01 1261.47 z" fill="rgb(229,218,201)" transform="translate(0,0)"></path>
<path d="M 1343.47 1189.78 C 1344.36 1189.47 1344.44 1189.59 1345.17 1190.23 C 1344.65 1190.48 1344.35 1190.73 1343.82 1190.63 C 1343.61 1190.32 1343.73 1190.55 1343.47 1189.78 z" fill="rgb(210,192,166)" transform="translate(0,0)"></path>
<path d="M 1356.06 1218.02 C 1357.44 1217.61 1357.42 1217.78 1358.23 1218.95 C 1356.83 1219.22 1356.81 1219.23 1356.06 1218.02 z" fill="rgb(210,192,166)" transform="translate(0,0)"></path>
<path d="M 1256.19 1147.35 C 1256.81 1147.21 1257.09 1147.05 1257.4 1147.21 C 1257.14 1147.79 1256.8 1148.22 1256.39 1148.76 C 1255.96 1148.79 1255.71 1148.9 1255.42 1148.7 C 1255.57 1148.4 1255.93 1147.75 1256.19 1147.35 z" fill="rgb(229,218,201)" transform="translate(0,0)"></path>
<path d="M 1276.3 1139.92 C 1276.5 1139.85 1276.7 1139.78 1276.91 1139.71 C 1277.2 1139.87 1277.02 1139.73 1277.45 1140.27 C 1276.74 1140.5 1276.98 1140.49 1276.64 1140.45 C 1276.53 1140.27 1276.41 1140.09 1276.3 1139.92 z" fill="rgb(210,192,166)" transform="translate(0,0)"></path>
<path d="M 1292.61 1162.22 C 1293.13 1162.32 1292.95 1162.24 1293.22 1162.43 C 1293.3 1162.74 1293.28 1162.51 1293.13 1163.25 C 1292.72 1163.24 1292.31 1163.23 1291.91 1163.23 L 1291.88 1163.13 C 1292.08 1162.72 1291.9 1163 1292.61 1162.22 z" fill="rgb(229,218,201)" transform="translate(0,0)"></path>
<path d="M 1249.41 1165.77 C 1250.28 1165.56 1250.19 1165.5 1250.94 1165.62 C 1251.02 1165.92 1250.99 1165.72 1250.95 1166.31 C 1250.5 1166.37 1249.69 1166.71 1249.27 1166.44 C 1249.2 1166.13 1249.2 1166.34 1249.41 1165.77 z" fill="rgb(229,218,201)" transform="translate(0,0)"></path>
<path d="M 1271.85 1144.38 C 1272.42 1144.7 1272.26 1144.54 1272.46 1144.83 C 1272.29 1145.11 1272.46 1144.92 1271.64 1145.39 C 1271.04 1145.02 1271.23 1145.18 1270.97 1144.91 L 1270.99 1144.81 C 1271.28 1144.67 1271.56 1144.52 1271.85 1144.38 z" fill="rgb(210,192,166)" transform="translate(0,0)"></path>
<path d="M 1301.71 1227.25 C 1301.96 1227.22 1302.2 1227.18 1302.45 1227.14 C 1302.26 1227.39 1302.08 1227.63 1301.9 1227.87 C 1301.6 1228.01 1301.29 1228.14 1300.98 1228.27 C 1301.21 1227.81 1301.02 1228.12 1301.71 1227.25 z" fill="rgb(210,192,166)" transform="translate(0,0)"></path>
<path d="M 1394.1 1224.93 C 1394.83 1224.76 1394.62 1224.72 1395.11 1225.3 C 1394.94 1225.31 1394.76 1225.33 1394.58 1225.35 C 1394.26 1225.19 1394.43 1225.31 1394.1 1224.93 z" fill="rgb(210,192,166)" transform="translate(0,0)"></path>
<path d="M 1374.23 1215.31 C 1374.38 1215.45 1374.54 1215.59 1374.7 1215.73 C 1374.57 1216.15 1374.16 1216.43 1373.74 1216.78 C 1373.18 1216.3 1373.35 1216.5 1373.13 1216.16 C 1373.53 1215.62 1373.49 1215.73 1374.23 1215.31 z" fill="rgb(210,192,166)" transform="translate(0,0)"></path>
<path d="M 1372.91 1232.25 C 1373.07 1232.24 1373.24 1232.23 1373.41 1232.23 C 1373.61 1232.5 1373.5 1232.29 1373.63 1233.04 C 1373.44 1232.99 1373.25 1232.94 1373.06 1232.89 C 1372.87 1232.59 1372.94 1232.79 1372.91 1232.25 z" fill="rgb(210,192,166)" transform="translate(0,0)"></path>
<path d="M 1352.48 1229.27 C 1352.86 1229.98 1352.53 1230.05 1352.31 1230.84 C 1351.65 1230.62 1351.86 1230.74 1351.57 1230.51 C 1351.84 1229.81 1351.87 1229.91 1352.48 1229.27 z" fill="rgb(210,192,166)" transform="translate(0,0)"></path>
<path d="M 1231.22 1150.58 C 1232.44 1149.74 1231.95 1149.63 1233.13 1151 C 1231.97 1151.33 1231.97 1151.55 1231.22 1150.58 z" fill="rgb(210,192,166)" transform="translate(0,0)"></path>
<path d="M 1401.34 1296.88 C 1401.55 1296.82 1401.75 1296.75 1401.96 1296.69 C 1402.18 1296.85 1402.05 1296.71 1402.32 1297.27 C 1402.12 1297.28 1401.92 1297.3 1401.73 1297.32 C 1401.45 1297.15 1401.58 1297.28 1401.34 1296.88 z" fill="rgb(210,192,166)" transform="translate(0,0)"></path>
<path d="M 1020.68 507.581 L 1023.39 506.747 C 1023.4 517.639 1031.96 572.112 1034.18 585.361 C 1050.52 576.505 1067.6 564.997 1083.25 554.735 C 1072.84 570.026 1061.7 586.463 1052.29 602.426 C 1081.23 607.258 1110.27 611.447 1139.39 614.988 C 1115.22 619.653 1077.41 624.664 1052.55 627.392 C 1061.75 643.337 1071.49 658.962 1081.76 674.238 C 1065.69 665.141 1049.9 653.435 1033.99 644.466 C 1030.51 671.44 1026.65 698.362 1022.4 725.224 C 1022.6 726.18 1023 727.418 1022.26 728.272 C 1021.74 728.04 1021.93 727.963 1021.71 727.137 C 1019.78 720.515 1018.9 710.963 1017.68 704.017 C 1014.38 685.217 1012.73 663.683 1008.46 645.249 C 994.284 652.557 975.086 666.239 960.821 675.348 C 970.813 660.581 982.176 642.971 991.007 627.563 C 963.711 622.976 936.264 620.701 908.681 615.517 L 909.493 614.494 L 991.225 602.672 C 981.121 586.006 970.581 569.609 959.614 553.497 C 975.255 564.907 992.589 575.293 1009.14 585.353 C 1012.45 559.662 1017.15 533.411 1020.68 507.581 z" fill="rgb(184,153,115)" transform="translate(0,0)"></path>
<path d="M 1021.71 727.137 C 1021.91 726.203 1021.85 725.966 1022.4 725.224 C 1022.6 726.18 1023 727.418 1022.26 728.272 C 1021.74 728.04 1021.93 727.963 1021.71 727.137 z" fill="rgb(210,192,166)" transform="translate(0,0)"></path>
<path d="M 729.339 380.838 C 732.848 381.963 734.133 395.122 734.818 399.005 L 735.824 404.503 C 738.607 418.97 740.8 431.54 744.618 445.945 C 741.539 447.432 738.486 448.791 735.409 450.327 C 723.558 437.791 711.297 423.901 699.664 411.1 C 700.434 413.89 701.158 416.692 701.836 419.505 C 705.064 433.515 709.384 449.234 711.741 463.169 C 708.881 464.616 707.023 465.517 704.246 467.141 L 702.55 468.117 C 691.75 455.753 679.304 441.51 668.157 429.613 C 664.669 426.044 661.105 421.631 657.393 417.767 C 660.916 415.482 662.49 414.635 666.18 412.821 C 677.638 424.819 689.57 439.516 700.478 452.132 C 696.241 435.232 693.142 418.893 689.5 401.947 C 692.686 400.063 695.901 398.226 699.142 396.438 C 708.033 407.468 722.854 423.817 732.862 434.447 C 729.418 418.465 725.56 400.765 722.961 384.636 C 722.836 383.861 728.629 381.218 729.339 380.838 z" fill="rgb(184,153,115)" transform="translate(0,0)"></path>
<path d="M 1267.27 1634.27 C 1273.11 1634.86 1277.33 1635.71 1281.67 1640.33 C 1285.02 1643.87 1286.74 1648.64 1286.42 1653.5 C 1285.84 1661.74 1282.29 1664.78 1276.21 1669.89 C 1285.03 1676.52 1293.47 1682.36 1302.31 1688.86 C 1299.11 1690.32 1295.94 1691.84 1292.81 1693.43 C 1284.09 1686.88 1275.39 1680.45 1266.71 1673.83 C 1263.31 1675.12 1259.78 1676.28 1256.33 1677.45 C 1254.87 1683.69 1265.85 1697.54 1264.48 1702.76 C 1264.29 1703.46 1263.76 1703.91 1263.15 1704.25 C 1261.82 1704.99 1258.49 1706.68 1257.04 1706.07 C 1255.21 1705.3 1235.9 1654.27 1233.93 1648.5 C 1233.84 1648.24 1233.77 1647.99 1233.69 1647.73 L 1233.17 1646.11 C 1242.39 1642.49 1258.26 1635.83 1267.27 1634.27 z" fill="rgb(184,153,115)" transform="translate(0,0)"></path>
<path d="M 1265.32 1643.11 L 1266.86 1643.21 C 1274.64 1643.65 1279.71 1650.74 1276.71 1657.98 C 1274.46 1663.41 1261.43 1667.26 1256.21 1669.08 C 1255.47 1669.32 1253.08 1670.24 1252.6 1669.57 C 1249.98 1665.97 1246.03 1653.95 1244.71 1650.32 L 1265.32 1643.11 z" fill="rgb(254,253,254)" transform="translate(0,0)"></path>
<path d="M 684.963 1594.18 C 689.244 1595.79 694.098 1596.69 693.221 1601.47 C 690.444 1617.02 687.218 1632.49 683.549 1647.85 C 694.645 1635.42 705.877 1623.1 717.242 1610.91 C 720.291 1612.38 723.334 1613.83 726.432 1615.2 C 725.275 1621.29 724.348 1627.41 723.25 1633.5 L 720.224 1649.51 C 719.273 1654.75 718.299 1659.61 717.221 1664.83 C 728.743 1652.56 739.741 1639.94 751.333 1627.61 C 753.603 1628.87 755.994 1629.94 758.199 1631.31 L 759.571 1632.12 C 756.37 1635.72 753.292 1639.19 749.909 1642.63 C 737.671 1655.28 726.426 1668.46 714.049 1680.92 C 711.073 1679.54 707.979 1677.88 705.059 1676.34 C 708.903 1658.9 712.309 1640.9 716.465 1623.62 C 705.057 1636.97 692.498 1650.55 681.616 1663.94 C 678.449 1662.29 675.267 1660.66 672.073 1659.05 C 676.742 1637.55 680.369 1615.59 684.963 1594.18 z" fill="rgb(184,153,115)" transform="translate(0,0)"></path>
<path d="M 1340.44 1600.23 C 1346.63 1600.36 1350.4 1600.79 1355.17 1605.44 C 1358.96 1609.13 1361.08 1614.21 1361.05 1619.5 C 1360.95 1626.3 1356.99 1630.24 1352.29 1634.5 C 1362.42 1640.62 1371.57 1645.21 1381.66 1650.89 C 1378.41 1652.6 1375.13 1654.28 1371.85 1655.93 C 1361.94 1650.64 1353.1 1644.76 1343.44 1639.39 C 1340.16 1641.31 1336.75 1643.16 1333.65 1645.32 L 1334.07 1646.37 C 1336.65 1652.91 1342.39 1662.74 1346.06 1668.99 C 1342.52 1671.12 1341.16 1671.93 1337.45 1673.71 C 1327.14 1653.86 1317.23 1636.22 1306.68 1616.79 C 1314.54 1612.54 1333.11 1602.41 1340.44 1600.23 z" fill="rgb(184,153,115)" transform="translate(0,0)"></path>
<path d="M 1340.31 1609.04 C 1353.48 1610.97 1356.74 1622.77 1345 1629.97 C 1340.52 1632.71 1335.25 1635.02 1330.52 1637.44 C 1327.46 1637.6 1321.04 1622.91 1319.27 1619.64 C 1325.91 1616.17 1333.52 1612 1340.31 1609.04 z" fill="rgb(254,253,254)" transform="translate(0,0)"></path>
<path d="M 1270.46 372.26 C 1278.45 375.018 1297.48 382.861 1303.51 388 C 1317.44 399.884 1304.69 423.017 1286.74 419.698 C 1286.19 419.699 1285.65 419.699 1285.11 419.7 C 1286.07 425.385 1287.15 431.33 1287.99 437.003 L 1289.93 450.848 C 1278.67 445.254 1280.6 448.658 1278.73 435.92 C 1278.17 430.184 1276.63 421.107 1275.6 415.356 C 1271.77 413.515 1268.1 412.011 1264.22 410.321 C 1260.78 418.589 1257.24 426.815 1253.61 434.997 C 1250.46 433.774 1247.98 432.61 1244.95 431.114 C 1253.28 411.43 1262.21 391.866 1270.46 372.26 z" fill="rgb(184,153,115)" transform="translate(0,0)"></path>
<path d="M 1276.02 383.525 C 1287.26 388.313 1314.1 397.688 1292.14 411.315 C 1283.28 410.927 1275.38 406.584 1266.94 403.014 C 1269.99 396.931 1273.17 389.781 1276.02 383.525 z" fill="rgb(254,253,254)" transform="translate(0,0)"></path>
<path d="M 1354.01 410.801 C 1360.29 413.902 1381.27 426.168 1384.92 431.551 C 1387.62 435.477 1388.64 440.314 1387.77 444.996 C 1386.87 449.597 1383.96 454.376 1380.02 456.912 C 1375.76 459.665 1370.58 460.602 1365.63 459.512 C 1364.4 459.28 1363.17 459.047 1361.94 458.814 C 1362.07 470.144 1362.59 480 1363.15 491.3 C 1360.27 489.577 1358.19 488.326 1355.25 486.736 L 1353.68 485.876 C 1353.5 480.835 1353.36 475.793 1353.26 470.75 L 1352.86 453.526 C 1349.45 451.672 1346.02 449.87 1342.64 447.978 C 1338.2 453.971 1332.63 463.494 1328.4 470.146 C 1325.63 468.714 1322.91 467.291 1320.28 465.61 C 1329.59 450.446 1344.4 424.134 1354.01 410.801 z" fill="rgb(184,153,115)" transform="translate(0,0)"></path>
<path d="M 1357.58 422.481 C 1362.7 425.412 1376.92 433.278 1378.63 438.04 C 1381.34 445.547 1374.41 450.217 1369.06 452.211 C 1360.8 450.114 1354.32 445.091 1346.56 440.707 L 1357.58 422.481 z" fill="rgb(254,253,254)" transform="translate(0,0)"></path>
<path d="M 484.742 1409.33 C 490.056 1408.04 490.04 1410.95 492.989 1415.36 C 481.015 1435.08 466.944 1457.07 455.689 1476.73 C 453.342 1473.46 452.41 1471.93 449.783 1468.8 C 452.041 1465.08 454.345 1461.39 456.694 1457.74 C 457.942 1455.79 458.479 1455.53 458.981 1453.41 C 456.172 1449.41 453.514 1445.26 450.7 1441.32 C 447.216 1436.5 443.864 1431.59 440.646 1426.59 C 432.934 1427.21 429.814 1427.75 421.977 1429.31 C 419.725 1426.57 418.193 1424.28 416.33 1421.27 C 439.119 1417.59 461.906 1412.68 484.742 1409.33 z" fill="rgb(184,153,115)" transform="translate(0,0)"></path>
<path d="M 479.586 1418.14 C 481.847 1418.26 482.236 1419.23 480.71 1420.36 C 476.791 1423.27 466.123 1444.84 463.539 1445.12 C 462.336 1444.45 459.842 1440.42 458.963 1439.14 L 448.793 1424.63 C 459.409 1422.56 469.123 1420.31 479.586 1418.14 z" fill="rgb(254,253,254)" transform="translate(0,0)"></path>
<path d="M 428.718 641.835 C 451.935 643.529 475.764 646.305 498.811 649.236 C 500.214 649.414 497.762 656.252 497.089 656.523 C 493.143 658.11 482.363 655.908 478.379 655.422 C 473.17 664.184 467.466 673.908 461.893 682.404 C 459.866 687.105 467.923 696.051 470.706 699.892 C 469.057 703.199 467.887 705.662 466.025 708.925 C 454.626 691.676 436.723 666.882 425.714 648.495 C 425.228 647.683 428.145 642.853 428.718 641.835 z" fill="rgb(184,153,115)" transform="translate(0,0)"></path>
<path d="M 436.746 650.722 C 448.243 651.799 458.301 653.629 470.104 654.318 C 467.342 658.418 464.821 662.505 462.022 666.594 C 459.522 670.271 457.41 673.449 455.029 677.198 C 448.716 668.433 442.907 659.528 436.746 650.722 z" fill="rgb(254,253,254)" transform="translate(0,0)"></path>
<path d="M 568.113 532.642 C 559.88 523.969 548.533 514.925 541.746 505.529 C 541.283 504.888 546.7 498.973 547.62 499.808 C 563.55 514.268 578.464 530.253 594.306 544.973 C 592.879 546.406 589.358 550.985 587.002 550.637 C 566.038 547.538 545.194 544.672 524.274 541.229 C 537.236 553.221 548.703 564.193 561.296 576.493 C 558.671 579.486 557.92 580.257 554.932 582.94 C 539.288 567.675 523.3 552.893 507.489 537.836 C 509.959 535.516 512.437 533.304 514.924 531.011 C 520.982 531.843 527.057 532.565 533.102 533.482 C 537.222 534.097 541.355 534.617 545.5 535.042 C 549.117 535.439 551.761 536.13 555.459 535.998 C 561.583 535.401 565.176 537.728 568.113 532.642 z" fill="rgb(184,153,115)" transform="translate(0,0)"></path>
<path d="M 568.113 532.642 C 570.628 534.622 572.927 537.345 575.076 539.735 L 559.487 536.871 C 558.124 536.626 556.805 536.311 555.459 535.998 C 561.583 535.401 565.176 537.728 568.113 532.642 z" fill="rgb(254,253,254)" transform="translate(0,0)"></path>
<path d="M 1177.35 1662.08 C 1181.43 1662.63 1215.04 1709.87 1220.27 1715.92 C 1222.2 1718.14 1212.88 1719.21 1212.91 1719.22 C 1208.76 1717.12 1204.2 1709.59 1200.9 1705.54 L 1189.24 1708.49 C 1183.86 1710.23 1174.85 1712.14 1169.2 1713.51 C 1168.66 1716.28 1167.41 1721.9 1167.22 1725.01 C 1167.24 1731.06 1163.04 1733.05 1157.55 1732.74 C 1155.94 1732.65 1159.53 1717.63 1159.85 1715.99 L 1165.84 1681.99 C 1166.18 1680.04 1166.52 1678.39 1166.89 1676.49 L 1167.77 1671.99 C 1169.54 1662.85 1168.14 1664.39 1177.35 1662.08 z" fill="rgb(184,153,115)" transform="translate(0,0)"></path>
<path d="M 1175.88 1672.67 C 1180.71 1677.68 1191.04 1692.25 1195.84 1698.42 C 1192.77 1699.37 1189.67 1700.18 1186.58 1701.07 L 1170.21 1705.22 C 1172.01 1694.72 1173.39 1682.93 1175.88 1672.67 z" fill="rgb(254,253,254)" transform="translate(0,0)"></path>
<path d="M 1197.88 348.83 C 1200.81 349.764 1203.73 350.755 1206.62 351.801 C 1210.67 374.133 1213.49 396.976 1216.78 419.414 C 1217.04 421.225 1211.36 419.31 1210.92 419.144 C 1208.81 418.347 1207.48 417.86 1207.12 415.095 L 1205.31 401.555 C 1197.91 399.455 1190.59 397.098 1183.22 395.028 C 1180.12 394.229 1176.72 393.046 1173.54 392.129 C 1169.49 396.651 1166.01 401.215 1162.41 406.085 L 1152.66 403.41 C 1167.28 385.242 1183.48 367.002 1197.88 348.83 z" fill="rgb(184,153,115)" transform="translate(0,0)"></path>
<path d="M 1199.51 359.693 C 1200.54 364.24 1201.19 370.26 1201.75 375.003 C 1202.44 380.985 1203.28 386.949 1204.27 392.887 C 1198.78 391.344 1193.34 389.576 1187.93 388.059 C 1185.12 387.183 1182.24 386.086 1179.47 385.071 C 1185.86 376.789 1192.79 367.649 1199.51 359.693 z" fill="rgb(254,253,254)" transform="translate(0,0)"></path>
<path d="M 557.55 1493.67 C 559.996 1495.28 563.219 1498.62 565.669 1500.74 C 565.19 1503.11 564.489 1505.69 564.13 1508 C 561.341 1525.39 558.343 1542.74 555.136 1560.06 C 566.67 1547.98 578.534 1536.22 590.716 1524.79 C 593.099 1527.05 595.593 1529.24 598.025 1531.46 L 596.945 1532.4 C 591.643 1536.97 551.994 1576.63 550.295 1576.74 C 548.638 1575.15 546.61 1573.57 545.227 1571.74 C 543.17 1569.02 552.655 1523.93 553.794 1516.99 C 554.224 1514.38 554.735 1511.8 555.266 1509.2 C 543.065 1521.66 531.092 1534.27 518.464 1546.38 C 516.229 1544.12 514.191 1542 511.882 1539.77 C 526.505 1525.38 543.021 1507.14 557.55 1493.67 z" fill="rgb(184,153,115)" transform="translate(0,0)"></path>
<path d="M 1509.74 1462.67 C 1511.08 1463.65 1515.37 1466.74 1515.51 1468.6 C 1514.08 1471.41 1495 1491.06 1491.57 1494.59 L 1505.4 1507.77 L 1506.6 1506.5 C 1511.85 1500.88 1521.55 1490.65 1527.93 1485.85 C 1528.59 1485.35 1533.39 1489.9 1532.94 1490.49 C 1526.97 1498.48 1518.59 1506.04 1511.62 1513.56 C 1516.6 1517.96 1521.53 1522.41 1526.43 1526.91 C 1532.01 1521.22 1537.53 1515.47 1542.99 1509.66 L 1551.31 1501.01 C 1553.07 1502.76 1554.83 1504.45 1556.74 1506.04 L 1558.23 1507.33 C 1547.16 1517.76 1537.24 1528.76 1526.67 1539.65 L 1506.71 1521.54 C 1498.82 1514.47 1485.75 1502.63 1478.7 1495.49 C 1489.03 1484.3 1498.87 1473.4 1509.74 1462.67 z" fill="rgb(184,153,115)" transform="translate(0,0)"></path>
<path d="M 618.999 442.825 C 620.913 443.49 624.986 447.851 624.133 448.646 C 615.831 456.387 605.02 462.903 595.897 470.084 C 600.123 475.191 604.101 480.38 608.322 485.49 C 616.468 478.993 625.631 472.752 634.005 466.348 C 639.654 473.008 640.65 472.131 633.184 477.533 C 626.591 482.303 619.978 487.154 613.332 491.868 C 617.656 497.886 620.859 502.719 625.717 508.341 C 631.799 504.332 635.841 500.794 641.506 496.788 C 645.455 494.069 649.829 490.28 654.039 488.325 C 655.665 487.571 659.53 493.577 658.995 494.029 C 648.619 502.815 634.368 513.206 622.826 520.58 C 609.298 502.21 597.919 486.271 582.789 468.775 C 595.08 460.34 606.756 451.403 618.999 442.825 z" fill="rgb(184,153,115)" transform="translate(0,0)"></path>
<path d="M 1066.75 1680.5 C 1073.36 1679.92 1070.67 1687.67 1070.11 1688.24 C 1068.84 1689.52 1037.89 1690.14 1034.75 1690.24 C 1034.93 1696.9 1035.2 1703.55 1035.54 1710.2 C 1045.31 1709.58 1057.71 1708.04 1067.47 1709.4 C 1068.51 1710.1 1068.39 1716.03 1067.51 1716.15 C 1059.06 1717.35 1044.54 1717.75 1036.21 1718.07 C 1036.25 1724.76 1036.43 1731.45 1036.75 1738.14 C 1042.15 1737.86 1047.46 1737.41 1052.84 1737.17 C 1058.72 1737 1066.53 1735.98 1071.97 1736.99 C 1073.32 1737.24 1073.19 1744.41 1072.31 1744.54 C 1060.21 1746.35 1039.29 1746.53 1027.65 1746.83 C 1026.94 1725.42 1026.06 1704.03 1025 1682.64 C 1038.92 1681.66 1052.89 1681.31 1066.75 1680.5 z" fill="rgb(184,153,115)" transform="translate(0,0)"></path>
<path d="M 623.557 1551.51 C 635.325 1559.45 648.121 1568.65 658.749 1577.97 C 659.658 1578.77 654.842 1584.26 654.416 1584.02 C 644.841 1578.51 635.84 1570.11 626.227 1563.77 C 622.407 1568.66 618.775 1573.63 614.975 1578.55 C 622.135 1584.48 632.019 1590.95 639.087 1597 C 639.497 1597.35 636.495 1605.06 633.592 1603.03 C 625.613 1597.45 617.934 1591.5 609.834 1586.08 C 605.715 1590.58 601.425 1596.74 597.457 1601.62 C 606.752 1609.03 616.635 1615.59 626.147 1622.84 C 624.242 1625.26 622.701 1627.66 620.858 1630.11 C 611.897 1622.24 595.02 1610.11 584.745 1603.52 C 597.031 1586.82 610.814 1567.64 623.557 1551.51 z" fill="rgb(184,153,115)" transform="translate(0,0)"></path>
<path d="M 1538.8 558.896 C 1543.75 564.016 1547.79 569.784 1552.68 575.547 C 1556.2 579.691 1563.25 587.668 1565.88 592.46 C 1566.51 593.604 1560.51 597.328 1559.93 596.803 C 1555.15 592.54 1541.47 575.407 1538.07 571.341 C 1532.94 575.055 1527.87 578.855 1522.87 582.74 C 1528.95 591.285 1536.33 598.869 1541.87 607.514 C 1542.26 608.132 1537.31 612.608 1536.89 612.226 C 1529.82 605.808 1522.91 596.274 1516.76 588.575 C 1512.91 590.142 1503.76 597.673 1499.98 600.596 C 1502.62 603.868 1521 625.304 1522.05 627.923 C 1521.84 629.701 1516.92 633.519 1516.5 633.091 C 1506.77 623.307 1495.79 609.376 1487.34 598.511 C 1502.69 585.92 1522.7 570.419 1538.8 558.896 z" fill="rgb(184,153,115)" transform="translate(0,0)"></path>
<path d="M 1039.07 325.031 C 1053.57 326.599 1068.43 326.709 1082.7 328.625 C 1083.75 329.271 1083.19 336.298 1082.45 336.299 C 1071.63 336.32 1058.59 335.132 1047.71 334.397 C 1046.87 340.696 1046.2 347.016 1045.68 353.351 C 1049.1 353.658 1076.92 355.208 1077.37 356.33 C 1081.06 365.549 1071.29 363.336 1067.13 363.005 C 1059.15 362.371 1052.37 361.95 1045.31 361.474 C 1044.52 368.269 1044.1 374.975 1043.65 381.794 C 1053.31 382.299 1065.74 383.902 1075 383.996 C 1084.39 384.091 1077.78 392.113 1078.37 392.111 C 1063.74 392.161 1048.49 389.732 1033.75 388.904 C 1035.27 367.649 1037.05 346.241 1039.07 325.031 z" fill="rgb(184,153,115)" transform="translate(0,0)"></path>
<path d="M 1584.99 635.071 C 1589.06 634.882 1591.91 634.147 1596.82 636.314 C 1607.55 641.057 1614.62 658.584 1612.3 669.545 C 1612.15 670.258 1603.35 671.526 1604 667.043 C 1605.25 658.557 1595.68 636.563 1584.89 645.922 C 1578.13 651.78 1586.09 669.701 1586.66 676.997 C 1587.23 690.785 1579.95 696.034 1567.72 696.915 C 1548.82 691.672 1542.92 676.297 1544.27 657.889 C 1544.5 654.819 1552.41 656.941 1552.46 657.03 C 1554.53 661.125 1552.27 670.835 1555.74 676.57 C 1558.82 681.682 1559.04 685.251 1565.17 687.626 C 1579.14 690.97 1577.93 677.988 1575.47 668.621 C 1571.51 653.609 1569.53 642.309 1584.99 635.071 z" fill="rgb(184,153,115)" transform="translate(0,0)"></path>
<path d="M 1561.07 1405.04 C 1563.58 1406.82 1564.1 1410.21 1565.33 1413.07 C 1560.12 1415.73 1536.25 1427.89 1551.02 1439.79 C 1555.08 1443.06 1564.05 1436.52 1567.54 1433.74 C 1574.41 1428.26 1585.06 1421.78 1594.46 1426.07 C 1605.32 1431.34 1606.58 1445.78 1600.8 1455.41 C 1594.41 1466.05 1586.23 1469.94 1574.6 1472.84 C 1573.94 1471.18 1572.21 1466.02 1572.49 1464.36 C 1573.97 1463.15 1576.5 1462.74 1578.5 1462.08 C 1587.21 1459.67 1598.8 1448.53 1594.73 1438.61 C 1590.62 1428.63 1579.41 1436.01 1574.49 1440.01 C 1568.33 1444.99 1557.45 1452.85 1549.01 1449.13 C 1532.22 1441.72 1535.57 1422.83 1547.67 1412.67 C 1553.02 1408.18 1555.42 1407.44 1561.07 1405.04 z" fill="rgb(184,153,115)" transform="translate(0,0)"></path>
<path d="M 1457.6 1516.97 C 1459.57 1519.57 1475.36 1576.04 1477.41 1583.01 C 1475.31 1584.8 1473.25 1586.32 1471.02 1587.97 C 1453.53 1579 1434.72 1568.3 1417.43 1558.63 C 1414.81 1557.22 1412.16 1555.93 1409.51 1554.58 L 1417 1548.34 C 1434.31 1556.86 1449.31 1566.28 1466.01 1575.23 C 1460.78 1557.79 1454.79 1540.08 1450.13 1522.52 C 1452.69 1520.59 1454.97 1518.85 1457.6 1516.97 z" fill="rgb(184,153,115)" transform="translate(0,0)"></path>
<path d="M 1466.86 487.613 C 1469.25 489.772 1471.61 491.962 1473.94 494.18 C 1466.77 509.615 1459.34 528.987 1452.13 545.189 C 1469.7 536.734 1485.41 530.539 1503.15 522.788 C 1511.79 530.649 1510.15 529.088 1499.25 533.701 C 1483.06 541.503 1465.21 548.137 1448.63 556.427 L 1446.86 557.302 L 1439.9 550.359 C 1448.47 529.505 1458.27 508.5 1466.86 487.613 z" fill="rgb(184,153,115)" transform="translate(0,0)"></path>
<path d="M 949.541 1678.89 C 963.782 1679.7 978.832 1680.93 992.916 1682.58 C 993.803 1682.69 993.132 1689.61 992.536 1689.64 C 981.598 1690.1 969.287 1688.46 958.198 1687.89 C 957.807 1694.29 957.219 1700.57 956.825 1706.97 C 962.692 1707.3 983.054 1707.66 987.096 1710.62 C 986.986 1711.07 985.964 1716.4 985.318 1716.47 C 977.212 1717.32 964.375 1715.57 956.307 1715 C 955.74 1722.45 955.421 1735.5 953.429 1742.81 C 953.282 1743.35 945.059 1743.16 945.11 1742 C 946.028 1721.04 948.161 1699.93 949.541 1678.89 z" fill="rgb(184,153,115)" transform="translate(0,0)"></path>
<path d="M 984.231 325.548 C 987.694 325.289 991.594 324.821 995.004 325.32 C 997.069 325.622 996.928 332.192 996.312 332.321 C 985.891 334.502 972.592 333.998 961.797 334.663 C 962.472 342.138 962.887 346.624 963.045 354.199 C 972.713 353.877 982.858 352.781 992.391 353.376 C 993.608 353.732 993.471 359.799 992.857 360.025 C 987.409 362.031 972.147 361.922 966.782 362.085 C 960.889 362.881 965.281 372.795 964.386 377.504 C 963.94 379.855 966.181 386.782 964.582 389.518 C 964.159 390.241 957.445 390.961 956.397 389.619 C 954.773 368.913 953.543 347.826 952.554 327.019 C 962.987 326.447 974.074 326.202 984.231 325.548 z" fill="rgb(184,153,115)" transform="translate(0,0)"></path>
<path d="M 826.503 347.179 C 827.242 347.332 831.307 348.003 831.428 348.352 C 835.044 358.732 842.36 392.844 844.54 401.45 C 854.973 399.488 865.801 395.896 875.969 394.772 C 875.696 394.803 881.718 400.908 874.76 402.893 C 862.435 406.165 850.017 409.079 837.522 411.631 C 835.358 403.336 833.173 394.842 831.29 386.474 L 830.122 381.486 L 828.275 373.486 L 824.259 355.477 C 823.288 351.23 822.165 350.47 825.445 348.067 L 826.503 347.179 z" fill="rgb(184,153,115)" transform="translate(0,0)"></path>
<path d="M 831.504 1656.69 C 832.284 1656.89 840.372 1658.31 840.116 1659.63 C 837.553 1672.78 833.407 1685.9 830.247 1699.02 C 829.195 1703.54 828.096 1708.05 826.949 1712.55 C 834.081 1714.84 841.295 1716.87 848.574 1718.64 C 859.587 1721.25 860.163 1719.19 856.353 1729.31 C 852.099 1727.96 846.409 1726.46 841.988 1725.32 L 815.938 1718.71 L 829.907 1662.99 C 830.422 1660.86 830.962 1658.81 831.504 1656.69 z" fill="rgb(184,153,115)" transform="translate(0,0)"></path>
<path d="M 1384.4 1571.72 C 1388.31 1572.69 1409.8 1609.4 1414.4 1614.67 C 1415.2 1615.57 1420.89 1624.02 1421.23 1625 C 1420.81 1626.72 1416.38 1629.16 1414.78 1630.22 C 1414.37 1630.02 1413.9 1629.85 1413.57 1629.51 C 1410.4 1626.24 1378.4 1577.21 1378.44 1577.04 C 1378.77 1575.45 1383.17 1572.71 1384.4 1571.72 z" fill="rgb(184,153,115)" transform="translate(0,0)"></path>
<path d="M 904.153 1673.64 C 905.696 1673.71 913.132 1673.64 913.076 1675.06 C 912.845 1680.88 910.117 1692.91 909.172 1698.51 C 907.494 1708.35 905.739 1718.18 903.905 1728 C 903.235 1731.49 902.79 1734.64 902.206 1738.13 C 897.774 1737.01 892.58 1738.03 893.443 1733.23 L 897.14 1713.51 C 898.41 1706.72 899.534 1699.81 900.742 1692.99 L 901.768 1687.49 L 904.153 1673.64 z" fill="rgb(184,153,115)" transform="translate(0,0)"></path>
<path d="M 903.309 331.478 C 908.053 332.315 909.14 331.233 909.854 336.488 C 912.459 355.726 916.99 374.739 919.601 393.965 C 919.682 394.563 916.199 396.692 915.83 396.966 C 915.558 396.93 911.135 396.662 910.948 395.99 C 909.178 389.63 908.199 381.666 907.084 374.993 C 904.829 361.504 902.248 348.112 900.225 334.602 C 900.316 333.904 900.813 333.354 901.341 332.932 C 901.997 332.447 902.653 331.963 903.309 331.478 z" fill="rgb(184,153,115)" transform="translate(0,0)"></path>
<path d="M 1429 458.732 C 1431.83 460.498 1434 462.266 1436.55 464.385 C 1423.45 480.186 1410.77 498.15 1397.81 514.131 C 1396.54 513.877 1396.55 513.945 1395.47 513.103 L 1390.31 509.089 L 1429 458.732 z" fill="rgb(184,153,115)" transform="translate(0,0)"></path>
<path d="M 1020.68 507.581 L 1020.93 505.84 C 1021.05 504.739 1021.1 503.577 1021.79 502.662 C 1022.09 502.531 1021.94 502.546 1022.25 502.608 C 1023.22 503.625 1023.17 505.463 1023.39 506.747 L 1020.68 507.581 z" fill="rgb(210,192,166)" transform="translate(0,0)"></path>
<path d="M 908.681 615.517 C 908.068 615.521 906.757 615.787 906.232 615.122 C 906.461 613.938 908.81 614.441 909.493 614.494 L 908.681 615.517 z" fill="rgb(210,192,166)" transform="translate(0,0)"></path>
<metadata><recraft-signature>{"signed_by": "recraft", "signature_b64": "5aecH35KhihF7dGSEspDiQavgTcmTIjMpe73yiKbB3hHpf6q+rkxoQOlMRmKcSnTJOr2t6IHvFNcdOON4fz0Ag==", "signing_algo": "Ed25519", "generation_timestamp": 1777098110, "identifier": "0a959053-5388-41a5-b4f4-ee17e5c104f8"}</recraft-signature></metadata></svg>